<?xml version="1.0" encoding="UTF-8" standalone="no"?>
<!-- Created with Inkscape (http://www.inkscape.org/) -->

<svg
   xmlns:dc="http://purl.org/dc/elements/1.1/"
   xmlns:cc="http://creativecommons.org/ns#"
   xmlns:rdf="http://www.w3.org/1999/02/22-rdf-syntax-ns#"
   xmlns:svg="http://www.w3.org/2000/svg"
   xmlns="http://www.w3.org/2000/svg"
   xmlns:sodipodi="http://sodipodi.sourceforge.net/DTD/sodipodi-0.dtd"
   xmlns:inkscape="http://www.inkscape.org/namespaces/inkscape"
   width="167.64mm"
   height="128.5mm"
   viewBox="0 0 167.64 128.5"
   version="1.1"
   id="svg8"
   inkscape:version="0.92.4 (f8dce91, 2019-08-02)"
   sodipodi:docname="faceplatev0.svg">
  <defs
     id="defs2" />
  <sodipodi:namedview
     id="base"
     pagecolor="#ffffff"
     bordercolor="#666666"
     borderopacity="1.0"
     inkscape:pageopacity="0.0"
     inkscape:pageshadow="2"
     inkscape:zoom="0.70710678"
     inkscape:cx="188.03769"
     inkscape:cy="339.83764"
     inkscape:document-units="mm"
     inkscape:current-layer="layer2"
     showgrid="false"
     showguides="true"
     inkscape:guide-bbox="true"
     inkscape:window-width="1299"
     inkscape:window-height="713"
     inkscape:window-x="67"
     inkscape:window-y="27"
     inkscape:window-maximized="1">
    <sodipodi:guide
       position="55.752425,64.358504"
       orientation="1,0"
       id="guide1366"
       inkscape:locked="false" />
    <sodipodi:guide
       position="111.50485,65.855213"
       orientation="1,0"
       id="guide1368"
       inkscape:locked="false" />
  </sodipodi:namedview>
  <metadata
     id="metadata5">
    <rdf:RDF>
      <cc:Work
         rdf:about="">
        <dc:format>image/svg+xml</dc:format>
        <dc:type
           rdf:resource="http://purl.org/dc/dcmitype/StillImage" />
        <dc:title></dc:title>
      </cc:Work>
    </rdf:RDF>
  </metadata>
  <g
     inkscape:label="Layer 1"
     inkscape:groupmode="layer"
     id="layer1"
     transform="translate(0,-168.5)"
     style="display:inline">
    <g
       transform="matrix(0.26458333,0,0,0.26458333,0,168.5)"
       style="font-style:normal;font-weight:normal;font-size:40px;line-height:1.25;font-family:sans-serif;letter-spacing:0px;word-spacing:0px;fill:#000000;fill-opacity:1;stroke:none"
       id="flowRoot1379" />
    <rect
       style="display:inline;fill:#f3b36d;fill-opacity:1;stroke:none;stroke-width:0;stroke-miterlimit:4;stroke-dasharray:none;stroke-opacity:1"
       id="rect879"
       width="167.63145"
       height="128.71701"
       x="-0.16998766"
       y="168.66571" />
    <g
       aria-label="pitch "
       style="font-style:normal;font-weight:normal;font-size:10.58333302px;line-height:1.25;font-family:sans-serif;letter-spacing:0px;word-spacing:0px;fill:#000000;fill-opacity:1;stroke:none;stroke-width:0.26458332"
       id="text1389">
      <path
         d="m 16.135934,208.9485 v 3.06958 H 15.17992 v -7.98917 h 0.956014 v 0.87849 q 0.299723,-0.51676 0.754476,-0.76481 0.45992,-0.25321 1.09554,-0.25321 1.0542,0 1.71049,0.83716 0.661459,0.83716 0.661459,2.20141 0,1.36426 -0.661459,2.20142 -0.65629,0.83716 -1.71049,0.83716 -0.63562,0 -1.09554,-0.24805 -0.454753,-0.25321 -0.754476,-0.76998 z m 3.234945,-2.02055 q 0,-1.04903 -0.434082,-1.64331 -0.428915,-0.59944 -1.183391,-0.59944 -0.754475,0 -1.188557,0.59944 -0.428915,0.59428 -0.428915,1.64331 0,1.04903 0.428915,1.64848 0.434082,0.59428 1.188557,0.59428 0.754476,0 1.183391,-0.59428 0.434082,-0.59945 0.434082,-1.64848 z"
         style="stroke-width:0.26458332"
         id="path1541"
         inkscape:connector-curvature="0" />
      <path
         d="m 21.93403,204.02891 h 0.950846 v 5.78776 H 21.93403 Z m 0,-2.2531 h 0.950846 v 1.20406 H 21.93403 Z"
         style="stroke-width:0.26458332"
         id="path1543"
         inkscape:connector-curvature="0" />
      <path
         d="m 25.809762,202.38559 v 1.64332 h 1.958537 v 0.73897 h -1.958537 v 3.14193 q 0,0.70796 0.191203,0.9095 0.19637,0.20154 0.790649,0.20154 h 0.976685 v 0.79582 h -0.976685 q -1.100708,0 -1.519287,-0.40825 -0.418579,-0.41341 -0.418579,-1.49861 v -3.14193 h -0.697632 v -0.73897 h 0.697632 v -1.64332 z"
         style="stroke-width:0.26458332"
         id="path1545"
         inkscape:connector-curvature="0" />
      <path
         d="m 33.189156,204.25111 v 0.88884 q -0.403076,-0.22221 -0.81132,-0.33073 -0.403076,-0.11369 -0.816487,-0.11369 -0.925008,0 -1.436605,0.58911 -0.511597,0.58395 -0.511597,1.64331 0,1.05937 0.511597,1.64848 0.511597,0.58394 1.436605,0.58394 0.413411,0 0.816487,-0.10852 0.408244,-0.11368 0.81132,-0.33589 v 0.8785 q -0.397908,0.18603 -0.826823,0.27905 -0.423746,0.093 -0.904337,0.093 -1.307414,0 -2.077393,-0.82166 -0.769978,-0.82165 -0.769978,-2.21692 0,-1.41593 0.775146,-2.22725 0.780314,-0.81132 2.134237,-0.81132 0.439249,0 0.857828,0.093 0.41858,0.0878 0.81132,0.26871 z"
         style="stroke-width:0.26458332"
         id="path1547"
         inkscape:connector-curvature="0" />
      <path
         d="m 39.664212,206.32334 v 3.49333 h -0.950846 v -3.46233 q 0,-0.82165 -0.320394,-1.22989 -0.320394,-0.40825 -0.961181,-0.40825 -0.769979,0 -1.214397,0.49093 -0.444417,0.49092 -0.444417,1.33842 v 3.27112 h -0.956014 v -8.04086 h 0.956014 v 3.15227 q 0.341065,-0.52194 0.800985,-0.78032 0.465088,-0.25838 1.069702,-0.25838 0.997355,0 1.508952,0.62012 0.511596,0.61495 0.511596,1.81384 z"
         style="stroke-width:0.26458332"
         id="path1549"
         inkscape:connector-curvature="0" />
    </g>
    <g
       aria-label="cv "
       transform="scale(0.93016603,1.0750769)"
       style="font-style:normal;font-weight:normal;font-size:6.81364346px;line-height:1.25;font-family:sans-serif;letter-spacing:0px;word-spacing:0px;fill:#000000;fill-opacity:1;stroke:none;stroke-width:0.17034107"
       id="text1463">
      <path
         d="m 9.6095246,210.0706 v 0.57224 q -0.259504,-0.14306 -0.522335,-0.21293 -0.259504,-0.0732 -0.5256619,-0.0732 -0.5955284,0 -0.9248989,0.37927 -0.3293704,0.37595 -0.3293704,1.05798 0,0.68203 0.3293704,1.0613 0.3293705,0.37595 0.9248989,0.37595 0.2661579,0 0.5256619,-0.0699 0.262831,-0.0732 0.522335,-0.21626 v 0.56559 q -0.256177,0.11977 -0.5323159,0.17965 -0.2728119,0.0599 -0.5822205,0.0599 -0.8417245,0 -1.3374437,-0.52899 -0.4957192,-0.52899 -0.4957192,-1.42727 0,-0.91159 0.4990462,-1.43393 0.5023731,-0.52233 1.3740404,-0.52233 0.2827928,0 0.5522777,0.0599 0.2694849,0.0566 0.522335,0.17301 z"
         style="stroke-width:0.17034107"
         id="path1552"
         inkscape:connector-curvature="0" />
      <path
         d="m 10.24165,209.92754 h 0.64876 l 1.164441,3.12735 1.164441,-3.12735 h 0.64876 l -1.397329,3.72621 h -0.831744 z"
         style="stroke-width:0.17034107"
         id="path1554"
         inkscape:connector-curvature="0" />
    </g>
    <g
       aria-label="fine "
       transform="scale(0.86608093,1.1546265)"
       style="font-style:normal;font-weight:normal;font-size:6.23489571px;line-height:1.25;font-family:sans-serif;letter-spacing:0px;word-spacing:0px;fill:#000000;fill-opacity:1;stroke:none;stroke-width:0.15587239"
       id="text1469">
      <path
         d="m 28.106082,196.49782 v 3.40971 h -0.563211 v -2.97436 h -1.537413 v 2.97436 h -0.563211 v -2.97436 h -0.535811 v -0.43535 h 0.535811 v -0.23746 q 0,-0.55712 0.261817,-0.82198 0.264861,-0.26791 0.809806,-0.26791 h 0.56321 v 0.46579 h -0.535811 q -0.301394,0 -0.420125,0.12178 -0.115686,0.12177 -0.115686,0.43839 v 0.30139 z m -0.563211,-1.32126 h 0.563211 v 0.70934 h -0.563211 z"
         style="stroke-width:0.15587239"
         id="path1557"
         inkscape:connector-curvature="0" />
      <path
         d="m 32.118578,197.84953 v 2.058 h -0.560166 v -2.03973 q 0,-0.48406 -0.188752,-0.72457 -0.188752,-0.2405 -0.566255,-0.2405 -0.453613,0 -0.71543,0.28921 -0.261817,0.28922 -0.261817,0.7885 v 1.92709 h -0.563211 v -3.40971 h 0.563211 v 0.52973 q 0.200929,-0.30749 0.471879,-0.45971 0.273995,-0.15222 0.630187,-0.15222 0.587566,0 0.88896,0.36533 0.301394,0.36228 0.301394,1.06858 z"
         style="stroke-width:0.15587239"
         id="path1559"
         inkscape:connector-curvature="0" />
      <path
         d="m 36.158474,198.06264 v 0.27399 h -2.575548 q 0.03653,0.57843 0.34706,0.88287 0.313571,0.3014 0.870693,0.3014 0.322705,0 0.624099,-0.0792 0.304438,-0.0791 0.602787,-0.23746 v 0.52972 q -0.301394,0.12787 -0.618009,0.19484 -0.316616,0.067 -0.642365,0.067 -0.815895,0 -1.293863,-0.47492 -0.474923,-0.47493 -0.474923,-1.28473 0,-0.83721 0.450568,-1.32736 0.453613,-0.49319 1.220798,-0.49319 0.68803,0 1.086844,0.44448 0.401859,0.44144 0.401859,1.20254 z m -0.560167,-0.1644 q -0.0061,-0.4597 -0.258772,-0.7337 -0.249639,-0.27399 -0.663676,-0.27399 -0.468834,0 -0.751962,0.26486 -0.280083,0.26486 -0.322705,0.74587 z"
         style="stroke-width:0.15587239"
         id="path1561"
         inkscape:connector-curvature="0" />
    </g>
    <g
       aria-label="pwm "
       transform="scale(0.90434481,1.1057729)"
       style="font-style:normal;font-weight:normal;font-size:5.60587215px;line-height:1.25;font-family:sans-serif;letter-spacing:0px;word-spacing:0px;fill:#000000;fill-opacity:1;stroke:none;stroke-width:0.14014679"
       id="text1475">
      <path
         d="m 42.944754,207.0308 v 1.62593 h -0.50639 v -4.23178 h 0.50639 v 0.46533 q 0.15876,-0.27372 0.399638,-0.40511 0.243614,-0.13413 0.580295,-0.13413 0.558397,0 0.906027,0.44344 0.350367,0.44343 0.350367,1.16606 0,0.72264 -0.350367,1.16607 -0.34763,0.44343 -0.906027,0.44343 -0.336681,0 -0.580295,-0.13139 -0.240878,-0.13412 -0.399638,-0.40785 z m 1.713514,-1.07026 q 0,-0.55566 -0.229928,-0.87044 -0.227192,-0.31752 -0.626829,-0.31752 -0.399637,0 -0.629566,0.31752 -0.227191,0.31478 -0.227191,0.87044 0,0.55566 0.227191,0.87318 0.229929,0.31479 0.629566,0.31479 0.399637,0 0.626829,-0.31479 0.229928,-0.31752 0.229928,-0.87318 z"
         style="stroke-width:0.14014679"
         id="path1564"
         inkscape:connector-curvature="0" />
      <path
         d="m 45.723055,204.42495 h 0.503653 l 0.629565,2.39235 0.626829,-2.39235 h 0.593981 l 0.629566,2.39235 0.626829,-2.39235 h 0.503652 l -0.802012,3.06571 h -0.593981 l -0.659676,-2.51279 -0.662412,2.51279 h -0.593982 z"
         style="stroke-width:0.14014679"
         id="path1566"
         inkscape:connector-curvature="0" />
      <path
         d="m 52.990433,205.01346 q 0.188869,-0.33942 0.451645,-0.50092 0.262775,-0.1615 0.618616,-0.1615 0.479018,0 0.739056,0.33669 0.260038,0.33394 0.260038,0.95256 v 1.85037 h -0.50639 v -1.83395 q 0,-0.4407 -0.156023,-0.6542 -0.156023,-0.21351 -0.47628,-0.21351 -0.391426,0 -0.618617,0.26004 -0.227191,0.26004 -0.227191,0.70895 v 1.73267 h -0.50639 v -1.83395 q 0,-0.44343 -0.156022,-0.6542 -0.156023,-0.21351 -0.481755,-0.21351 -0.385951,0 -0.613142,0.26278 -0.227191,0.26004 -0.227191,0.70621 v 1.73267 h -0.50639 v -3.06571 h 0.50639 v 0.47628 q 0.172446,-0.28194 0.413323,-0.41606 0.240877,-0.13413 0.572084,-0.13413 0.333943,0 0.566609,0.16971 0.235403,0.16971 0.34763,0.49271 z"
         style="stroke-width:0.14014679"
         id="path1568"
         inkscape:connector-curvature="0" />
    </g>
    <g
       aria-label="1v/oct "
       transform="scale(0.9060291,1.1037173)"
       style="font-style:normal;font-weight:normal;font-size:6.2884922px;line-height:1.25;font-family:sans-serif;letter-spacing:0px;word-spacing:0px;fill:#000000;fill-opacity:1;stroke:none;stroke-width:0.1572123"
       id="text1481">
      <path
         d="m 20.369715,226.15885 h 1.013282 v -3.49736 l -1.102328,0.22108 v -0.56498 l 1.096187,-0.22108 h 0.620252 v 4.06234 h 1.013282 v 0.522 h -2.640675 z"
         style="stroke-width:0.1572123"
         id="path1571"
         inkscape:connector-curvature="0" />
      <path
         d="m 23.781099,223.24183 h 0.598757 l 1.074694,2.88632 1.074693,-2.88632 h 0.598758 l -1.289632,3.43902 h -0.767638 z"
         style="stroke-width:0.1572123"
         id="path1573"
         inkscape:connector-curvature="0" />
      <path
         d="m 28.911992,222.09651 h 0.521994 l -1.596687,5.16774 h -0.521994 z"
         style="stroke-width:0.1572123"
         id="path1575"
         inkscape:connector-curvature="0" />
      <path
         d="m 31.365364,223.63793 q -0.454442,0 -0.718509,0.35618 -0.264068,0.35312 -0.264068,0.9703 0,0.61718 0.260997,0.97336 0.264068,0.35312 0.72158,0.35312 0.451371,0 0.715439,-0.35619 0.264067,-0.35618 0.264067,-0.97029 0,-0.61104 -0.264067,-0.96723 -0.264068,-0.35925 -0.715439,-0.35925 z m 0,-0.47901 q 0.736933,0 1.157598,0.47901 0.420666,0.47901 0.420666,1.32648 0,0.8444 -0.420666,1.32648 -0.420665,0.479 -1.157598,0.479 -0.740003,0 -1.160669,-0.479 -0.417595,-0.48208 -0.417595,-1.32648 0,-0.84747 0.417595,-1.32648 0.420666,-0.47901 1.160669,-0.47901 z"
         style="stroke-width:0.1572123"
         id="path1577"
         inkscape:connector-curvature="0" />
      <path
         d="m 36.351942,223.37386 v 0.52814 q -0.239503,-0.13204 -0.482076,-0.19652 -0.239504,-0.0675 -0.485148,-0.0675 -0.549629,0 -0.853613,0.35004 -0.303985,0.34697 -0.303985,0.97644 0,0.62946 0.303985,0.9795 0.303984,0.34698 0.853613,0.34698 0.245644,0 0.485148,-0.0645 0.242573,-0.0676 0.482076,-0.19959 v 0.52199 q -0.236432,0.11054 -0.491288,0.16581 -0.251785,0.0553 -0.537347,0.0553 -0.77685,0 -1.234362,-0.48821 -0.457512,-0.48822 -0.457512,-1.31727 0,-0.84133 0.460582,-1.32341 0.463654,-0.48208 1.268139,-0.48208 0.260997,0 0.509712,0.0553 0.248714,0.0522 0.482076,0.15967 z"
         style="stroke-width:0.1572123"
         id="path1579"
         inkscape:connector-curvature="0" />
      <path
         d="m 37.8995,222.26539 v 0.97644 h 1.16374 v 0.43909 H 37.8995 v 1.86689 q 0,0.42067 0.113611,0.54042 0.116681,0.11975 0.469794,0.11975 h 0.580335 v 0.47287 h -0.580335 q -0.654027,0 -0.902742,-0.24258 -0.248715,-0.24564 -0.248715,-0.89046 v -1.86689 h -0.414525 v -0.43909 h 0.414525 v -0.97644 z"
         style="stroke-width:0.1572123"
         id="path1581"
         inkscape:connector-curvature="0" />
    </g>
    <g
       aria-label="pulsewidth"
       transform="scale(0.87831746,1.1385405)"
       style="font-style:normal;font-weight:normal;font-size:5.89962292px;line-height:1.25;font-family:sans-serif;letter-spacing:0px;word-spacing:0px;fill:#000000;fill-opacity:1;stroke:none;stroke-width:0.14749058"
       id="text1487">
      <path
         d="m 15.259784,241.36392 v 1.71112 h -0.532925 v -4.45353 h 0.532925 v 0.48972 q 0.167079,-0.28807 0.420578,-0.42634 0.256381,-0.14115 0.610704,-0.14115 0.587657,0 0.953503,0.46666 0.368727,0.46667 0.368727,1.22717 0,0.7605 -0.368727,1.22717 -0.365846,0.46667 -0.953503,0.46667 -0.354323,0 -0.610704,-0.13827 -0.253499,-0.14116 -0.420578,-0.42922 z m 1.803303,-1.12635 q 0,-0.58477 -0.241977,-0.91605 -0.239096,-0.33416 -0.659675,-0.33416 -0.420578,0 -0.662555,0.33416 -0.239096,0.33128 -0.239096,0.91605 0,0.58478 0.239096,0.91894 0.241977,0.33128 0.662555,0.33128 0.420579,0 0.659675,-0.33128 0.241977,-0.33416 0.241977,-0.91894 z"
         style="stroke-width:0.14749058"
         id="path1584"
         inkscape:connector-curvature="0" />
      <path
         d="m 18.437169,240.57461 v -1.9531 h 0.530044 v 1.93294 q 0,0.45802 0.178602,0.68848 0.178602,0.22757 0.535805,0.22757 0.429221,0 0.676959,-0.27366 0.250619,-0.27367 0.250619,-0.7461 v -1.82923 h 0.530044 v 3.22636 h -0.530044 v -0.49548 q -0.193005,0.29383 -0.449385,0.43787 -0.2535,0.14115 -0.590539,0.14115 -0.55597,0 -0.844038,-0.34568 -0.288067,-0.34568 -0.288067,-1.01112 z m 1.333752,-2.03087 z"
         style="stroke-width:0.14749058"
         id="path1586"
         inkscape:connector-curvature="0" />
      <path
         d="m 22.236779,237.36554 h 0.530045 v 4.48233 h -0.530045 z"
         style="stroke-width:0.14749058"
         id="path1588"
         inkscape:connector-curvature="0" />
      <path
         d="m 25.929805,238.71658 v 0.50123 q -0.224692,-0.11522 -0.466669,-0.17284 -0.241977,-0.0576 -0.501238,-0.0576 -0.394652,0 -0.593419,0.12099 -0.195886,0.12099 -0.195886,0.36296 0,0.18437 0.141153,0.29095 0.141154,0.10371 0.567493,0.19877 l 0.181483,0.0403 q 0.564612,0.12099 0.800828,0.3428 0.239096,0.21893 0.239096,0.61358 0,0.44939 -0.357204,0.71153 -0.354323,0.26214 -0.976549,0.26214 -0.259261,0 -0.541567,-0.0519 -0.279425,-0.049 -0.590538,-0.1498 v -0.54733 q 0.293829,0.15268 0.579015,0.23046 0.285187,0.0749 0.564613,0.0749 0.374488,0 0.576135,-0.12675 0.201647,-0.12963 0.201647,-0.36297 0,-0.21605 -0.146914,-0.33128 -0.144034,-0.11522 -0.63663,-0.22181 l -0.184363,-0.0432 q -0.492595,-0.1037 -0.711527,-0.31687 -0.218931,-0.21605 -0.218931,-0.59054 0,-0.45515 0.322636,-0.70289 0.322635,-0.24773 0.916055,-0.24773 0.293828,0 0.553089,0.0432 0.259261,0.0432 0.478192,0.12963 z"
         style="stroke-width:0.14749058"
         id="path1590"
         inkscape:connector-curvature="0" />
      <path
         d="m 29.709251,240.10218 v 0.25926 H 27.2722 q 0.03457,0.54733 0.328397,0.8354 0.296709,0.28518 0.823873,0.28518 0.305351,0 0.590538,-0.0749 0.288068,-0.0749 0.570374,-0.2247 v 0.50124 q -0.285187,0.12099 -0.584777,0.18436 -0.29959,0.0634 -0.607823,0.0634 -0.772021,0 -1.224287,-0.44939 -0.449385,-0.44938 -0.449385,-1.21564 0,-0.79219 0.42634,-1.25598 0.429221,-0.46666 1.155151,-0.46666 0.651032,0 1.028401,0.42057 0.380249,0.4177 0.380249,1.13787 z m -0.530044,-0.15556 q -0.0058,-0.43498 -0.244858,-0.69424 -0.236215,-0.25926 -0.627987,-0.25926 -0.443624,0 -0.711527,0.25062 -0.265022,0.25062 -0.305351,0.70576 z"
         style="stroke-width:0.14749058"
         id="path1592"
         inkscape:connector-curvature="0" />
      <path
         d="m 30.270983,238.62151 h 0.530044 l 0.662555,2.51771 0.659675,-2.51771 h 0.625107 l 0.662555,2.51771 0.659675,-2.51771 h 0.530044 l -0.844038,3.22636 h -0.625107 l -0.694242,-2.64446 -0.697124,2.64446 h -0.625106 z"
         style="stroke-width:0.14749058"
         id="path1594"
         inkscape:connector-curvature="0" />
      <path
         d="m 35.407226,238.62151 h 0.530044 v 3.22636 h -0.530044 z m 0,-1.25597 h 0.530044 v 0.6712 h -0.530044 z"
         style="stroke-width:0.14749058"
         id="path1596"
         inkscape:connector-curvature="0" />
      <path
         d="m 39.166508,239.11123 v -1.74569 h 0.530044 v 4.48233 h -0.530044 v -0.48395 q -0.167079,0.28806 -0.423459,0.42922 -0.2535,0.13827 -0.610703,0.13827 -0.584777,0 -0.953504,-0.46667 -0.365846,-0.46667 -0.365846,-1.22717 0,-0.7605 0.365846,-1.22717 0.368727,-0.46666 0.953504,-0.46666 0.357203,0 0.610703,0.14115 0.25638,0.13827 0.423459,0.42634 z m -1.806183,1.12634 q 0,0.58478 0.239096,0.91894 0.241977,0.33128 0.662555,0.33128 0.420579,0 0.662555,-0.33128 0.241977,-0.33416 0.241977,-0.91894 0,-0.58477 -0.241977,-0.91605 -0.241976,-0.33416 -0.662555,-0.33416 -0.420578,0 -0.662555,0.33416 -0.239096,0.33128 -0.239096,0.91605 z"
         style="stroke-width:0.14749058"
         id="path1598"
         inkscape:connector-curvature="0" />
      <path
         d="m 41.31261,237.70546 v 0.91605 h 1.091776 v 0.41194 H 41.31261 v 1.75145 q 0,0.39465 0.106585,0.507 0.109466,0.11235 0.440744,0.11235 h 0.544447 v 0.44362 h -0.544447 q -0.613584,0 -0.846919,-0.22757 -0.233335,-0.23046 -0.233335,-0.8354 v -1.75145 h -0.388891 v -0.41194 h 0.388891 v -0.91605 z"
         style="stroke-width:0.14749058"
         id="path1600"
         inkscape:connector-curvature="0" />
      <path
         d="m 45.786299,239.90053 v 1.94734 h -0.530044 v -1.93005 q 0,-0.45803 -0.178602,-0.6856 -0.178602,-0.22758 -0.535806,-0.22758 -0.42922,0 -0.676958,0.27367 -0.247739,0.27366 -0.247739,0.74609 v 1.82347 h -0.532924 v -4.48233 h 0.532924 v 1.75721 q 0.190125,-0.29095 0.446505,-0.43498 0.259261,-0.14403 0.5963,-0.14403 0.55597,0 0.841157,0.34568 0.285187,0.3428 0.285187,1.01111 z"
         style="stroke-width:0.14749058"
         id="path1602"
         inkscape:connector-curvature="0" />
    </g>
    <g
       aria-label="sin "
       transform="scale(0.9034691,1.1068447)"
       style="font-style:normal;font-weight:normal;font-size:5.63043451px;line-height:1.25;font-family:sans-serif;letter-spacing:0px;word-spacing:0px;fill:#000000;fill-opacity:1;stroke:none;stroke-width:0.14076085"
       id="text1520">
      <path
         d="m 6.1365366,262.01698 v 0.47837 q -0.2144404,-0.10997 -0.4453762,-0.16495 -0.2309358,-0.055 -0.478367,-0.055 -0.3766453,0 -0.5663425,0.11547 -0.1869481,0.11547 -0.1869481,0.3464 0,0.17595 0.1347126,0.27768 0.1347125,0.099 0.5415994,0.18969 l 0.1732018,0.0385 q 0.5388502,0.11547 0.7642875,0.32716 0.2281866,0.20894 0.2281866,0.58559 0,0.42888 -0.3409052,0.67906 -0.338156,0.25018 -0.9319909,0.25018 -0.2474312,0 -0.5168563,-0.0495 -0.2666758,-0.0467 -0.5635933,-0.14296 v -0.52235 q 0.280422,0.14571 0.5525964,0.21994 0.2721743,0.0715 0.5388501,0.0715 0.3574007,0 0.5498472,-0.12097 0.1924465,-0.12371 0.1924465,-0.3464 0,-0.2062 -0.1402111,-0.31616 -0.1374617,-0.10997 -0.607581,-0.2117 l -0.1759511,-0.0412 q -0.4701193,-0.099 -0.6790612,-0.30242 -0.2089419,-0.20619 -0.2089419,-0.56359 0,-0.43438 0.3079144,-0.67082 0.3079144,-0.23643 0.8742569,-0.23643 0.280422,0 0.5278532,0.0412 0.2474312,0.0412 0.4563732,0.12371 z"
         style="stroke-width:0.14076085"
         id="path1605"
         inkscape:connector-curvature="0" />
      <path
         d="m 7.109766,261.92626 h 0.5058594 v 3.07914 H 7.109766 Z m 0,-1.19867 h 0.5058594 v 0.64057 H 7.109766 Z"
         style="stroke-width:0.14076085"
         id="path1607"
         inkscape:connector-curvature="0" />
      <path
         d="m 11.23087,263.14692 v 1.85848 h -0.505859 v -1.84199 q 0,-0.43712 -0.170453,-0.65431 -0.170453,-0.21719 -0.511358,-0.21719 -0.4096359,0 -0.6460701,0.26117 -0.2364343,0.26118 -0.2364343,0.71206 v 1.74026 H 8.652087 v -3.07914 h 0.5086086 v 0.47836 q 0.1814495,-0.27767 0.4261315,-0.41513 0.2474312,-0.13746 0.5690919,-0.13746 0.530602,0 0.802777,0.32991 0.272174,0.32716 0.272174,0.96498 z"
         style="stroke-width:0.14076085"
         id="path1609"
         inkscape:connector-curvature="0" />
    </g>
    <g
       aria-label="tri"
       transform="scale(0.8786294,1.1381363)"
       style="font-style:normal;font-weight:normal;font-size:5.40437794px;line-height:1.25;font-family:sans-serif;letter-spacing:0px;word-spacing:0px;fill:#000000;fill-opacity:1;stroke:none;stroke-width:0.13510945"
       id="text1526">
      <path
         d="m 19.054236,254.52817 v 0.83916 h 1.000127 v 0.37735 h -1.000127 v 1.60443 q 0,0.36152 0.09764,0.46444 0.100276,0.10291 0.403745,0.10291 h 0.498744 v 0.40639 h -0.498744 q -0.562077,0 -0.775824,-0.20847 -0.213747,-0.21111 -0.213747,-0.76527 v -1.60443 h -0.356246 v -0.37735 h 0.356246 v -0.83916 z"
         style="stroke-width:0.13510945"
         id="path1612"
         inkscape:connector-curvature="0" />
      <path
         d="m 22.408222,255.82121 q -0.0818,-0.0475 -0.179442,-0.0686 -0.095,-0.0238 -0.211108,-0.0238 -0.411662,0 -0.633326,0.26916 -0.219025,0.26653 -0.219025,0.76791 v 1.55693 h -0.488188 v -2.95552 h 0.488188 v 0.45916 q 0.153054,-0.26917 0.398467,-0.39847 0.245414,-0.13194 0.596382,-0.13194 0.05014,0 0.110832,0.008 0.06069,0.005 0.134582,0.0185 z"
         style="stroke-width:0.13510945"
         id="path1614"
         inkscape:connector-curvature="0" />
      <path
         d="m 22.922799,255.36733 h 0.48555 v 2.95552 h -0.48555 z m 0,-1.15055 h 0.48555 v 0.61486 h -0.48555 z"
         style="stroke-width:0.13510945"
         id="path1616"
         inkscape:connector-curvature="0" />
    </g>
    <g
       aria-label="saw "
       transform="scale(0.90570219,1.1041157)"
       style="font-style:normal;font-weight:normal;font-size:5.4540782px;line-height:1.25;font-family:sans-serif;letter-spacing:0px;word-spacing:0px;fill:#000000;fill-opacity:1;stroke:none;stroke-width:0.13635194"
       id="text1530">
      <path
         d="m 32.085768,262.4294 v 0.46339 q -0.207723,-0.10653 -0.431426,-0.15979 -0.223702,-0.0533 -0.463383,-0.0533 -0.364848,0 -0.548604,0.11185 -0.181092,0.11185 -0.181092,0.33555 0,0.17044 0.130493,0.26898 0.130493,0.0959 0.524635,0.18375 l 0.167777,0.0373 q 0.521972,0.11185 0.740349,0.31691 0.221039,0.2024 0.221039,0.56724 0,0.41545 -0.330228,0.6578 -0.327564,0.24234 -0.902799,0.24234 -0.239681,0 -0.500667,-0.0479 -0.258323,-0.0453 -0.54594,-0.13848 v -0.50599 q 0.271638,0.14114 0.535288,0.21305 0.263649,0.0692 0.521972,0.0692 0.346206,0 0.532625,-0.11718 0.186418,-0.11984 0.186418,-0.33555 0,-0.19974 -0.135819,-0.30626 -0.133156,-0.10653 -0.58855,-0.20506 l -0.17044,-0.04 q -0.455395,-0.0959 -0.657792,-0.29294 -0.202397,-0.19974 -0.202397,-0.54594 0,-0.42078 0.298269,-0.64981 0.29827,-0.22902 0.846874,-0.22902 0.271639,0 0.51132,0.0399 0.239681,0.04 0.442078,0.11984 z"
         style="stroke-width:0.13635194"
         id="path1619"
         inkscape:connector-curvature="0" />
      <path
         d="m 34.384045,263.82488 q -0.593877,0 -0.822906,0.13582 -0.229029,0.13582 -0.229029,0.46338 0,0.26099 0.17044,0.41545 0.173103,0.1518 0.46871,0.1518 0.407458,0 0.652466,-0.28762 0.24767,-0.29028 0.24767,-0.76964 v -0.10919 z m 0.977366,-0.2024 v 1.70174 h -0.490015 v -0.45273 q -0.167777,0.27164 -0.41811,0.40213 -0.250334,0.12783 -0.612519,0.12783 -0.458057,0 -0.729696,-0.25566 -0.268975,-0.25832 -0.268975,-0.68975 0,-0.50333 0.335553,-0.75899 0.338217,-0.25566 1.006661,-0.25566 h 0.687086 v -0.0479 q 0,-0.33821 -0.223702,-0.52197 -0.22104,-0.18642 -0.623171,-0.18642 -0.25566,0 -0.498004,0.0612 -0.242345,0.0613 -0.466047,0.18376 v -0.45273 q 0.268975,-0.10386 0.521972,-0.15446 0.252997,-0.0533 0.492678,-0.0533 0.647139,0 0.966714,0.33555 0.319575,0.33555 0.319575,1.01731 z"
         style="stroke-width:0.13635194"
         id="path1621"
         inkscape:connector-curvature="0" />
      <path
         d="m 36.088444,262.34152 h 0.490015 l 0.612518,2.32757 0.609856,-2.32757 h 0.577897 l 0.612519,2.32757 0.609855,-2.32757 h 0.490015 l -0.780295,2.9827 h -0.577898 l -0.641813,-2.44475 -0.644476,2.44475 h -0.577898 z"
         style="stroke-width:0.13635194"
         id="path1623"
         inkscape:connector-curvature="0" />
    </g>
    <g
       aria-label="sqr "
       transform="scale(0.95367205,1.0485785)"
       style="font-style:normal;font-weight:normal;font-size:5.91164303px;line-height:1.25;font-family:sans-serif;letter-spacing:0px;word-spacing:0px;fill:#000000;fill-opacity:1;stroke:none;stroke-width:0.14779107"
       id="text1536">
      <path
         d="m 45.66578,276.33373 v 0.50226 q -0.225151,-0.11546 -0.467621,-0.17319 -0.242469,-0.0577 -0.502258,-0.0577 -0.395457,0 -0.594629,0.12123 -0.196285,0.12124 -0.196285,0.36371 0,0.18473 0.141441,0.29154 0.141441,0.10391 0.568649,0.19917 l 0.181853,0.0404 q 0.565762,0.12123 0.802459,0.3435 0.239583,0.21938 0.239583,0.61483 0,0.4503 -0.357931,0.71298 -0.355045,0.26267 -0.978539,0.26267 -0.259789,0 -0.54267,-0.052 -0.279995,-0.0491 -0.591742,-0.1501 v -0.54845 q 0.294428,0.15299 0.580196,0.23093 0.285767,0.075 0.565762,0.075 0.375251,0 0.577309,-0.12701 0.202058,-0.1299 0.202058,-0.36371 0,-0.21649 -0.147213,-0.33195 -0.144328,-0.11546 -0.637927,-0.22226 l -0.184739,-0.0433 q -0.493599,-0.10392 -0.712976,-0.31752 -0.219377,-0.21649 -0.219377,-0.59174 0,-0.45608 0.323292,-0.70432 0.323293,-0.24824 0.917922,-0.24824 0.294427,0 0.554216,0.0433 0.259789,0.0433 0.479167,0.12989 z"
         style="stroke-width:0.14779107"
         id="path1626"
         inkscape:connector-curvature="0" />
      <path
         d="m 47.005136,277.85783 q 0,0.58597 0.239583,0.9208 0.24247,0.33196 0.663906,0.33196 0.421435,0 0.663905,-0.33196 0.24247,-0.33483 0.24247,-0.9208 0,-0.58597 -0.24247,-0.91792 -0.24247,-0.33484 -0.663905,-0.33484 -0.421436,0 -0.663906,0.33484 -0.239583,0.33195 -0.239583,0.91792 z m 1.809864,1.12864 q -0.16742,0.28865 -0.424323,0.43009 -0.254015,0.13855 -0.611947,0.13855 -0.585968,0 -0.955446,-0.46762 -0.366591,-0.46762 -0.366591,-1.22966 0,-0.76205 0.366591,-1.22967 0.369478,-0.46762 0.955446,-0.46762 0.357932,0 0.611947,0.14144 0.256903,0.13855 0.424323,0.42721 v -0.49071 h 0.531124 v 4.46259 H 48.815 Z"
         style="stroke-width:0.14779107"
         id="path1628"
         inkscape:connector-curvature="0" />
      <path
         d="m 52.313491,276.73496 q -0.08948,-0.052 -0.196285,-0.075 -0.103915,-0.026 -0.230923,-0.026 -0.450301,0 -0.692771,0.29443 -0.239583,0.29154 -0.239583,0.83998 v 1.70307 h -0.534011 v -3.23293 h 0.534011 v 0.50225 q 0.167419,-0.29442 0.435868,-0.43586 0.268449,-0.14433 0.652359,-0.14433 0.05484,0 0.121235,0.009 0.06639,0.006 0.147214,0.0202 z"
         style="stroke-width:0.14779107"
         id="path1630"
         inkscape:connector-curvature="0" />
    </g>
    <g
       transform="translate(56.672236,-0.52291573)"
       aria-label="pitch "
       style="font-style:normal;font-weight:normal;font-size:10.58333302px;line-height:1.25;font-family:sans-serif;letter-spacing:0px;word-spacing:0px;display:inline;fill:#000000;fill-opacity:1;stroke:none;stroke-width:0.26458332"
       id="text1389-3">
      <path
         d="m 16.135934,208.9485 v 3.06958 H 15.17992 v -7.98917 h 0.956014 v 0.87849 q 0.299723,-0.51676 0.754476,-0.76481 0.45992,-0.25321 1.09554,-0.25321 1.0542,0 1.71049,0.83716 0.661459,0.83716 0.661459,2.20141 0,1.36426 -0.661459,2.20142 -0.65629,0.83716 -1.71049,0.83716 -0.63562,0 -1.09554,-0.24805 -0.454753,-0.25321 -0.754476,-0.76998 z m 3.234945,-2.02055 q 0,-1.04903 -0.434082,-1.64331 -0.428915,-0.59944 -1.183391,-0.59944 -0.754475,0 -1.188557,0.59944 -0.428915,0.59428 -0.428915,1.64331 0,1.04903 0.428915,1.64848 0.434082,0.59428 1.188557,0.59428 0.754476,0 1.183391,-0.59428 0.434082,-0.59945 0.434082,-1.64848 z"
         style="stroke-width:0.26458332"
         id="path1541-6"
         inkscape:connector-curvature="0" />
      <path
         d="m 21.93403,204.02891 h 0.950846 v 5.78776 H 21.93403 Z m 0,-2.2531 h 0.950846 v 1.20406 H 21.93403 Z"
         style="stroke-width:0.26458332"
         id="path1543-7"
         inkscape:connector-curvature="0" />
      <path
         d="m 25.809762,202.38559 v 1.64332 h 1.958537 v 0.73897 h -1.958537 v 3.14193 q 0,0.70796 0.191203,0.9095 0.19637,0.20154 0.790649,0.20154 h 0.976685 v 0.79582 h -0.976685 q -1.100708,0 -1.519287,-0.40825 -0.418579,-0.41341 -0.418579,-1.49861 v -3.14193 h -0.697632 v -0.73897 h 0.697632 v -1.64332 z"
         style="stroke-width:0.26458332"
         id="path1545-5"
         inkscape:connector-curvature="0" />
      <path
         d="m 33.189156,204.25111 v 0.88884 q -0.403076,-0.22221 -0.81132,-0.33073 -0.403076,-0.11369 -0.816487,-0.11369 -0.925008,0 -1.436605,0.58911 -0.511597,0.58395 -0.511597,1.64331 0,1.05937 0.511597,1.64848 0.511597,0.58394 1.436605,0.58394 0.413411,0 0.816487,-0.10852 0.408244,-0.11368 0.81132,-0.33589 v 0.8785 q -0.397908,0.18603 -0.826823,0.27905 -0.423746,0.093 -0.904337,0.093 -1.307414,0 -2.077393,-0.82166 -0.769978,-0.82165 -0.769978,-2.21692 0,-1.41593 0.775146,-2.22725 0.780314,-0.81132 2.134237,-0.81132 0.439249,0 0.857828,0.093 0.41858,0.0878 0.81132,0.26871 z"
         style="stroke-width:0.26458332"
         id="path1547-3"
         inkscape:connector-curvature="0" />
      <path
         d="m 39.664212,206.32334 v 3.49333 h -0.950846 v -3.46233 q 0,-0.82165 -0.320394,-1.22989 -0.320394,-0.40825 -0.961181,-0.40825 -0.769979,0 -1.214397,0.49093 -0.444417,0.49092 -0.444417,1.33842 v 3.27112 h -0.956014 v -8.04086 h 0.956014 v 3.15227 q 0.341065,-0.52194 0.800985,-0.78032 0.465088,-0.25838 1.069702,-0.25838 0.997355,0 1.508952,0.62012 0.511596,0.61495 0.511596,1.81384 z"
         style="stroke-width:0.26458332"
         id="path1549-5"
         inkscape:connector-curvature="0" />
    </g>
    <g
       aria-label="cv "
       transform="matrix(0.93016602,0,0,1.0750769,56.672236,-0.52291573)"
       style="font-style:normal;font-weight:normal;font-size:6.81364346px;line-height:1.25;font-family:sans-serif;letter-spacing:0px;word-spacing:0px;display:inline;fill:#000000;fill-opacity:1;stroke:none;stroke-width:0.17034107"
       id="text1463-6">
      <path
         d="m 9.6095246,210.0706 v 0.57224 q -0.259504,-0.14306 -0.522335,-0.21293 -0.259504,-0.0732 -0.5256619,-0.0732 -0.5955284,0 -0.9248989,0.37927 -0.3293704,0.37595 -0.3293704,1.05798 0,0.68203 0.3293704,1.0613 0.3293705,0.37595 0.9248989,0.37595 0.2661579,0 0.5256619,-0.0699 0.262831,-0.0732 0.522335,-0.21626 v 0.56559 q -0.256177,0.11977 -0.5323159,0.17965 -0.2728119,0.0599 -0.5822205,0.0599 -0.8417245,0 -1.3374437,-0.52899 -0.4957192,-0.52899 -0.4957192,-1.42727 0,-0.91159 0.4990462,-1.43393 0.5023731,-0.52233 1.3740404,-0.52233 0.2827928,0 0.5522777,0.0599 0.2694849,0.0566 0.522335,0.17301 z"
         style="stroke-width:0.17034107"
         id="path1552-2"
         inkscape:connector-curvature="0" />
      <path
         d="m 10.24165,209.92754 h 0.64876 l 1.164441,3.12735 1.164441,-3.12735 h 0.64876 l -1.397329,3.72621 h -0.831744 z"
         style="stroke-width:0.17034107"
         id="path1554-9"
         inkscape:connector-curvature="0" />
    </g>
    <g
       aria-label="fine "
       transform="matrix(0.86608092,0,0,1.1546265,56.672236,-0.52291573)"
       style="font-style:normal;font-weight:normal;font-size:6.23489571px;line-height:1.25;font-family:sans-serif;letter-spacing:0px;word-spacing:0px;display:inline;fill:#000000;fill-opacity:1;stroke:none;stroke-width:0.15587239"
       id="text1469-1">
      <path
         d="m 28.106082,196.49782 v 3.40971 h -0.563211 v -2.97436 h -1.537413 v 2.97436 h -0.563211 v -2.97436 h -0.535811 v -0.43535 h 0.535811 v -0.23746 q 0,-0.55712 0.261817,-0.82198 0.264861,-0.26791 0.809806,-0.26791 h 0.56321 v 0.46579 h -0.535811 q -0.301394,0 -0.420125,0.12178 -0.115686,0.12177 -0.115686,0.43839 v 0.30139 z m -0.563211,-1.32126 h 0.563211 v 0.70934 h -0.563211 z"
         style="stroke-width:0.15587239"
         id="path1557-2"
         inkscape:connector-curvature="0" />
      <path
         d="m 32.118578,197.84953 v 2.058 h -0.560166 v -2.03973 q 0,-0.48406 -0.188752,-0.72457 -0.188752,-0.2405 -0.566255,-0.2405 -0.453613,0 -0.71543,0.28921 -0.261817,0.28922 -0.261817,0.7885 v 1.92709 h -0.563211 v -3.40971 h 0.563211 v 0.52973 q 0.200929,-0.30749 0.471879,-0.45971 0.273995,-0.15222 0.630187,-0.15222 0.587566,0 0.88896,0.36533 0.301394,0.36228 0.301394,1.06858 z"
         style="stroke-width:0.15587239"
         id="path1559-7"
         inkscape:connector-curvature="0" />
      <path
         d="m 36.158474,198.06264 v 0.27399 h -2.575548 q 0.03653,0.57843 0.34706,0.88287 0.313571,0.3014 0.870693,0.3014 0.322705,0 0.624099,-0.0792 0.304438,-0.0791 0.602787,-0.23746 v 0.52972 q -0.301394,0.12787 -0.618009,0.19484 -0.316616,0.067 -0.642365,0.067 -0.815895,0 -1.293863,-0.47492 -0.474923,-0.47493 -0.474923,-1.28473 0,-0.83721 0.450568,-1.32736 0.453613,-0.49319 1.220798,-0.49319 0.68803,0 1.086844,0.44448 0.401859,0.44144 0.401859,1.20254 z m -0.560167,-0.1644 q -0.0061,-0.4597 -0.258772,-0.7337 -0.249639,-0.27399 -0.663676,-0.27399 -0.468834,0 -0.751962,0.26486 -0.280083,0.26486 -0.322705,0.74587 z"
         style="stroke-width:0.15587239"
         id="path1561-0"
         inkscape:connector-curvature="0" />
    </g>
    <g
       aria-label="pwm "
       transform="matrix(0.9043448,0,0,1.1057729,56.672236,-0.52291573)"
       style="font-style:normal;font-weight:normal;font-size:5.60587215px;line-height:1.25;font-family:sans-serif;letter-spacing:0px;word-spacing:0px;display:inline;fill:#000000;fill-opacity:1;stroke:none;stroke-width:0.14014679"
       id="text1475-9">
      <path
         d="m 42.944754,207.0308 v 1.62593 h -0.50639 v -4.23178 h 0.50639 v 0.46533 q 0.15876,-0.27372 0.399638,-0.40511 0.243614,-0.13413 0.580295,-0.13413 0.558397,0 0.906027,0.44344 0.350367,0.44343 0.350367,1.16606 0,0.72264 -0.350367,1.16607 -0.34763,0.44343 -0.906027,0.44343 -0.336681,0 -0.580295,-0.13139 -0.240878,-0.13412 -0.399638,-0.40785 z m 1.713514,-1.07026 q 0,-0.55566 -0.229928,-0.87044 -0.227192,-0.31752 -0.626829,-0.31752 -0.399637,0 -0.629566,0.31752 -0.227191,0.31478 -0.227191,0.87044 0,0.55566 0.227191,0.87318 0.229929,0.31479 0.629566,0.31479 0.399637,0 0.626829,-0.31479 0.229928,-0.31752 0.229928,-0.87318 z"
         style="stroke-width:0.14014679"
         id="path1564-3"
         inkscape:connector-curvature="0" />
      <path
         d="m 45.723055,204.42495 h 0.503653 l 0.629565,2.39235 0.626829,-2.39235 h 0.593981 l 0.629566,2.39235 0.626829,-2.39235 h 0.503652 l -0.802012,3.06571 h -0.593981 l -0.659676,-2.51279 -0.662412,2.51279 h -0.593982 z"
         style="stroke-width:0.14014679"
         id="path1566-6"
         inkscape:connector-curvature="0" />
      <path
         d="m 52.990433,205.01346 q 0.188869,-0.33942 0.451645,-0.50092 0.262775,-0.1615 0.618616,-0.1615 0.479018,0 0.739056,0.33669 0.260038,0.33394 0.260038,0.95256 v 1.85037 h -0.50639 v -1.83395 q 0,-0.4407 -0.156023,-0.6542 -0.156023,-0.21351 -0.47628,-0.21351 -0.391426,0 -0.618617,0.26004 -0.227191,0.26004 -0.227191,0.70895 v 1.73267 h -0.50639 v -1.83395 q 0,-0.44343 -0.156022,-0.6542 -0.156023,-0.21351 -0.481755,-0.21351 -0.385951,0 -0.613142,0.26278 -0.227191,0.26004 -0.227191,0.70621 v 1.73267 h -0.50639 v -3.06571 h 0.50639 v 0.47628 q 0.172446,-0.28194 0.413323,-0.41606 0.240877,-0.13413 0.572084,-0.13413 0.333943,0 0.566609,0.16971 0.235403,0.16971 0.34763,0.49271 z"
         style="stroke-width:0.14014679"
         id="path1568-0"
         inkscape:connector-curvature="0" />
    </g>
    <g
       aria-label="1v/oct "
       transform="matrix(0.90602911,0,0,1.1037173,56.672236,-0.52291573)"
       style="font-style:normal;font-weight:normal;font-size:6.2884922px;line-height:1.25;font-family:sans-serif;letter-spacing:0px;word-spacing:0px;display:inline;fill:#000000;fill-opacity:1;stroke:none;stroke-width:0.1572123"
       id="text1481-6">
      <path
         d="m 20.369715,226.15885 h 1.013282 v -3.49736 l -1.102328,0.22108 v -0.56498 l 1.096187,-0.22108 h 0.620252 v 4.06234 h 1.013282 v 0.522 h -2.640675 z"
         style="stroke-width:0.1572123"
         id="path1571-2"
         inkscape:connector-curvature="0" />
      <path
         d="m 23.781099,223.24183 h 0.598757 l 1.074694,2.88632 1.074693,-2.88632 h 0.598758 l -1.289632,3.43902 h -0.767638 z"
         style="stroke-width:0.1572123"
         id="path1573-6"
         inkscape:connector-curvature="0" />
      <path
         d="m 28.911992,222.09651 h 0.521994 l -1.596687,5.16774 h -0.521994 z"
         style="stroke-width:0.1572123"
         id="path1575-1"
         inkscape:connector-curvature="0" />
      <path
         d="m 31.365364,223.63793 q -0.454442,0 -0.718509,0.35618 -0.264068,0.35312 -0.264068,0.9703 0,0.61718 0.260997,0.97336 0.264068,0.35312 0.72158,0.35312 0.451371,0 0.715439,-0.35619 0.264067,-0.35618 0.264067,-0.97029 0,-0.61104 -0.264067,-0.96723 -0.264068,-0.35925 -0.715439,-0.35925 z m 0,-0.47901 q 0.736933,0 1.157598,0.47901 0.420666,0.47901 0.420666,1.32648 0,0.8444 -0.420666,1.32648 -0.420665,0.479 -1.157598,0.479 -0.740003,0 -1.160669,-0.479 -0.417595,-0.48208 -0.417595,-1.32648 0,-0.84747 0.417595,-1.32648 0.420666,-0.47901 1.160669,-0.47901 z"
         style="stroke-width:0.1572123"
         id="path1577-8"
         inkscape:connector-curvature="0" />
      <path
         d="m 36.351942,223.37386 v 0.52814 q -0.239503,-0.13204 -0.482076,-0.19652 -0.239504,-0.0675 -0.485148,-0.0675 -0.549629,0 -0.853613,0.35004 -0.303985,0.34697 -0.303985,0.97644 0,0.62946 0.303985,0.9795 0.303984,0.34698 0.853613,0.34698 0.245644,0 0.485148,-0.0645 0.242573,-0.0676 0.482076,-0.19959 v 0.52199 q -0.236432,0.11054 -0.491288,0.16581 -0.251785,0.0553 -0.537347,0.0553 -0.77685,0 -1.234362,-0.48821 -0.457512,-0.48822 -0.457512,-1.31727 0,-0.84133 0.460582,-1.32341 0.463654,-0.48208 1.268139,-0.48208 0.260997,0 0.509712,0.0553 0.248714,0.0522 0.482076,0.15967 z"
         style="stroke-width:0.1572123"
         id="path1579-7"
         inkscape:connector-curvature="0" />
      <path
         d="m 37.8995,222.26539 v 0.97644 h 1.16374 v 0.43909 H 37.8995 v 1.86689 q 0,0.42067 0.113611,0.54042 0.116681,0.11975 0.469794,0.11975 h 0.580335 v 0.47287 h -0.580335 q -0.654027,0 -0.902742,-0.24258 -0.248715,-0.24564 -0.248715,-0.89046 v -1.86689 h -0.414525 v -0.43909 h 0.414525 v -0.97644 z"
         style="stroke-width:0.1572123"
         id="path1581-9"
         inkscape:connector-curvature="0" />
    </g>
    <g
       aria-label="pulsewidth"
       transform="matrix(0.87831745,0,0,1.1385405,56.672236,-0.52291573)"
       style="font-style:normal;font-weight:normal;font-size:5.89962292px;line-height:1.25;font-family:sans-serif;letter-spacing:0px;word-spacing:0px;display:inline;fill:#000000;fill-opacity:1;stroke:none;stroke-width:0.14749058"
       id="text1487-2">
      <path
         d="m 15.259784,241.36392 v 1.71112 h -0.532925 v -4.45353 h 0.532925 v 0.48972 q 0.167079,-0.28807 0.420578,-0.42634 0.256381,-0.14115 0.610704,-0.14115 0.587657,0 0.953503,0.46666 0.368727,0.46667 0.368727,1.22717 0,0.7605 -0.368727,1.22717 -0.365846,0.46667 -0.953503,0.46667 -0.354323,0 -0.610704,-0.13827 -0.253499,-0.14116 -0.420578,-0.42922 z m 1.803303,-1.12635 q 0,-0.58477 -0.241977,-0.91605 -0.239096,-0.33416 -0.659675,-0.33416 -0.420578,0 -0.662555,0.33416 -0.239096,0.33128 -0.239096,0.91605 0,0.58478 0.239096,0.91894 0.241977,0.33128 0.662555,0.33128 0.420579,0 0.659675,-0.33128 0.241977,-0.33416 0.241977,-0.91894 z"
         style="stroke-width:0.14749058"
         id="path1584-0"
         inkscape:connector-curvature="0" />
      <path
         d="m 18.437169,240.57461 v -1.9531 h 0.530044 v 1.93294 q 0,0.45802 0.178602,0.68848 0.178602,0.22757 0.535805,0.22757 0.429221,0 0.676959,-0.27366 0.250619,-0.27367 0.250619,-0.7461 v -1.82923 h 0.530044 v 3.22636 h -0.530044 v -0.49548 q -0.193005,0.29383 -0.449385,0.43787 -0.2535,0.14115 -0.590539,0.14115 -0.55597,0 -0.844038,-0.34568 -0.288067,-0.34568 -0.288067,-1.01112 z m 1.333752,-2.03087 z"
         style="stroke-width:0.14749058"
         id="path1586-2"
         inkscape:connector-curvature="0" />
      <path
         d="m 22.236779,237.36554 h 0.530045 v 4.48233 h -0.530045 z"
         style="stroke-width:0.14749058"
         id="path1588-3"
         inkscape:connector-curvature="0" />
      <path
         d="m 25.929805,238.71658 v 0.50123 q -0.224692,-0.11522 -0.466669,-0.17284 -0.241977,-0.0576 -0.501238,-0.0576 -0.394652,0 -0.593419,0.12099 -0.195886,0.12099 -0.195886,0.36296 0,0.18437 0.141153,0.29095 0.141154,0.10371 0.567493,0.19877 l 0.181483,0.0403 q 0.564612,0.12099 0.800828,0.3428 0.239096,0.21893 0.239096,0.61358 0,0.44939 -0.357204,0.71153 -0.354323,0.26214 -0.976549,0.26214 -0.259261,0 -0.541567,-0.0519 -0.279425,-0.049 -0.590538,-0.1498 v -0.54733 q 0.293829,0.15268 0.579015,0.23046 0.285187,0.0749 0.564613,0.0749 0.374488,0 0.576135,-0.12675 0.201647,-0.12963 0.201647,-0.36297 0,-0.21605 -0.146914,-0.33128 -0.144034,-0.11522 -0.63663,-0.22181 l -0.184363,-0.0432 q -0.492595,-0.1037 -0.711527,-0.31687 -0.218931,-0.21605 -0.218931,-0.59054 0,-0.45515 0.322636,-0.70289 0.322635,-0.24773 0.916055,-0.24773 0.293828,0 0.553089,0.0432 0.259261,0.0432 0.478192,0.12963 z"
         style="stroke-width:0.14749058"
         id="path1590-7"
         inkscape:connector-curvature="0" />
      <path
         d="m 29.709251,240.10218 v 0.25926 H 27.2722 q 0.03457,0.54733 0.328397,0.8354 0.296709,0.28518 0.823873,0.28518 0.305351,0 0.590538,-0.0749 0.288068,-0.0749 0.570374,-0.2247 v 0.50124 q -0.285187,0.12099 -0.584777,0.18436 -0.29959,0.0634 -0.607823,0.0634 -0.772021,0 -1.224287,-0.44939 -0.449385,-0.44938 -0.449385,-1.21564 0,-0.79219 0.42634,-1.25598 0.429221,-0.46666 1.155151,-0.46666 0.651032,0 1.028401,0.42057 0.380249,0.4177 0.380249,1.13787 z m -0.530044,-0.15556 q -0.0058,-0.43498 -0.244858,-0.69424 -0.236215,-0.25926 -0.627987,-0.25926 -0.443624,0 -0.711527,0.25062 -0.265022,0.25062 -0.305351,0.70576 z"
         style="stroke-width:0.14749058"
         id="path1592-5"
         inkscape:connector-curvature="0" />
      <path
         d="m 30.270983,238.62151 h 0.530044 l 0.662555,2.51771 0.659675,-2.51771 h 0.625107 l 0.662555,2.51771 0.659675,-2.51771 h 0.530044 l -0.844038,3.22636 h -0.625107 l -0.694242,-2.64446 -0.697124,2.64446 h -0.625106 z"
         style="stroke-width:0.14749058"
         id="path1594-9"
         inkscape:connector-curvature="0" />
      <path
         d="m 35.407226,238.62151 h 0.530044 v 3.22636 h -0.530044 z m 0,-1.25597 h 0.530044 v 0.6712 h -0.530044 z"
         style="stroke-width:0.14749058"
         id="path1596-2"
         inkscape:connector-curvature="0" />
      <path
         d="m 39.166508,239.11123 v -1.74569 h 0.530044 v 4.48233 h -0.530044 v -0.48395 q -0.167079,0.28806 -0.423459,0.42922 -0.2535,0.13827 -0.610703,0.13827 -0.584777,0 -0.953504,-0.46667 -0.365846,-0.46667 -0.365846,-1.22717 0,-0.7605 0.365846,-1.22717 0.368727,-0.46666 0.953504,-0.46666 0.357203,0 0.610703,0.14115 0.25638,0.13827 0.423459,0.42634 z m -1.806183,1.12634 q 0,0.58478 0.239096,0.91894 0.241977,0.33128 0.662555,0.33128 0.420579,0 0.662555,-0.33128 0.241977,-0.33416 0.241977,-0.91894 0,-0.58477 -0.241977,-0.91605 -0.241976,-0.33416 -0.662555,-0.33416 -0.420578,0 -0.662555,0.33416 -0.239096,0.33128 -0.239096,0.91605 z"
         style="stroke-width:0.14749058"
         id="path1598-2"
         inkscape:connector-curvature="0" />
      <path
         d="m 41.31261,237.70546 v 0.91605 h 1.091776 v 0.41194 H 41.31261 v 1.75145 q 0,0.39465 0.106585,0.507 0.109466,0.11235 0.440744,0.11235 h 0.544447 v 0.44362 h -0.544447 q -0.613584,0 -0.846919,-0.22757 -0.233335,-0.23046 -0.233335,-0.8354 v -1.75145 h -0.388891 v -0.41194 h 0.388891 v -0.91605 z"
         style="stroke-width:0.14749058"
         id="path1600-8"
         inkscape:connector-curvature="0" />
      <path
         d="m 45.786299,239.90053 v 1.94734 h -0.530044 v -1.93005 q 0,-0.45803 -0.178602,-0.6856 -0.178602,-0.22758 -0.535806,-0.22758 -0.42922,0 -0.676958,0.27367 -0.247739,0.27366 -0.247739,0.74609 v 1.82347 h -0.532924 v -4.48233 h 0.532924 v 1.75721 q 0.190125,-0.29095 0.446505,-0.43498 0.259261,-0.14403 0.5963,-0.14403 0.55597,0 0.841157,0.34568 0.285187,0.3428 0.285187,1.01111 z"
         style="stroke-width:0.14749058"
         id="path1602-9"
         inkscape:connector-curvature="0" />
    </g>
    <g
       aria-label="sin "
       transform="matrix(0.90346911,0,0,1.1068447,56.672236,-0.52291573)"
       style="font-style:normal;font-weight:normal;font-size:5.63043451px;line-height:1.25;font-family:sans-serif;letter-spacing:0px;word-spacing:0px;display:inline;fill:#000000;fill-opacity:1;stroke:none;stroke-width:0.14076085"
       id="text1520-7">
      <path
         d="m 6.1365366,262.01698 v 0.47837 q -0.2144404,-0.10997 -0.4453762,-0.16495 -0.2309358,-0.055 -0.478367,-0.055 -0.3766453,0 -0.5663425,0.11547 -0.1869481,0.11547 -0.1869481,0.3464 0,0.17595 0.1347126,0.27768 0.1347125,0.099 0.5415994,0.18969 l 0.1732018,0.0385 q 0.5388502,0.11547 0.7642875,0.32716 0.2281866,0.20894 0.2281866,0.58559 0,0.42888 -0.3409052,0.67906 -0.338156,0.25018 -0.9319909,0.25018 -0.2474312,0 -0.5168563,-0.0495 -0.2666758,-0.0467 -0.5635933,-0.14296 v -0.52235 q 0.280422,0.14571 0.5525964,0.21994 0.2721743,0.0715 0.5388501,0.0715 0.3574007,0 0.5498472,-0.12097 0.1924465,-0.12371 0.1924465,-0.3464 0,-0.2062 -0.1402111,-0.31616 -0.1374617,-0.10997 -0.607581,-0.2117 l -0.1759511,-0.0412 q -0.4701193,-0.099 -0.6790612,-0.30242 -0.2089419,-0.20619 -0.2089419,-0.56359 0,-0.43438 0.3079144,-0.67082 0.3079144,-0.23643 0.8742569,-0.23643 0.280422,0 0.5278532,0.0412 0.2474312,0.0412 0.4563732,0.12371 z"
         style="stroke-width:0.14076085"
         id="path1605-3"
         inkscape:connector-curvature="0" />
      <path
         d="m 7.109766,261.92626 h 0.5058594 v 3.07914 H 7.109766 Z m 0,-1.19867 h 0.5058594 v 0.64057 H 7.109766 Z"
         style="stroke-width:0.14076085"
         id="path1607-6"
         inkscape:connector-curvature="0" />
      <path
         d="m 11.23087,263.14692 v 1.85848 h -0.505859 v -1.84199 q 0,-0.43712 -0.170453,-0.65431 -0.170453,-0.21719 -0.511358,-0.21719 -0.4096359,0 -0.6460701,0.26117 -0.2364343,0.26118 -0.2364343,0.71206 v 1.74026 H 8.652087 v -3.07914 h 0.5086086 v 0.47836 q 0.1814495,-0.27767 0.4261315,-0.41513 0.2474312,-0.13746 0.5690919,-0.13746 0.530602,0 0.802777,0.32991 0.272174,0.32716 0.272174,0.96498 z"
         style="stroke-width:0.14076085"
         id="path1609-1"
         inkscape:connector-curvature="0" />
    </g>
    <g
       aria-label="tri"
       transform="matrix(0.87862939,0,0,1.1381363,56.672236,-0.52291573)"
       style="font-style:normal;font-weight:normal;font-size:5.40437794px;line-height:1.25;font-family:sans-serif;letter-spacing:0px;word-spacing:0px;display:inline;fill:#000000;fill-opacity:1;stroke:none;stroke-width:0.13510945"
       id="text1526-2">
      <path
         d="m 19.054236,254.52817 v 0.83916 h 1.000127 v 0.37735 h -1.000127 v 1.60443 q 0,0.36152 0.09764,0.46444 0.100276,0.10291 0.403745,0.10291 h 0.498744 v 0.40639 h -0.498744 q -0.562077,0 -0.775824,-0.20847 -0.213747,-0.21111 -0.213747,-0.76527 v -1.60443 h -0.356246 v -0.37735 h 0.356246 v -0.83916 z"
         style="stroke-width:0.13510945"
         id="path1612-9"
         inkscape:connector-curvature="0" />
      <path
         d="m 22.408222,255.82121 q -0.0818,-0.0475 -0.179442,-0.0686 -0.095,-0.0238 -0.211108,-0.0238 -0.411662,0 -0.633326,0.26916 -0.219025,0.26653 -0.219025,0.76791 v 1.55693 h -0.488188 v -2.95552 h 0.488188 v 0.45916 q 0.153054,-0.26917 0.398467,-0.39847 0.245414,-0.13194 0.596382,-0.13194 0.05014,0 0.110832,0.008 0.06069,0.005 0.134582,0.0185 z"
         style="stroke-width:0.13510945"
         id="path1614-3"
         inkscape:connector-curvature="0" />
      <path
         d="m 22.922799,255.36733 h 0.48555 v 2.95552 h -0.48555 z m 0,-1.15055 h 0.48555 v 0.61486 h -0.48555 z"
         style="stroke-width:0.13510945"
         id="path1616-1"
         inkscape:connector-curvature="0" />
    </g>
    <g
       aria-label="saw "
       transform="matrix(0.90570219,0,0,1.1041157,56.672236,-0.52291573)"
       style="font-style:normal;font-weight:normal;font-size:5.4540782px;line-height:1.25;font-family:sans-serif;letter-spacing:0px;word-spacing:0px;display:inline;fill:#000000;fill-opacity:1;stroke:none;stroke-width:0.13635194"
       id="text1530-9">
      <path
         d="m 32.085768,262.4294 v 0.46339 q -0.207723,-0.10653 -0.431426,-0.15979 -0.223702,-0.0533 -0.463383,-0.0533 -0.364848,0 -0.548604,0.11185 -0.181092,0.11185 -0.181092,0.33555 0,0.17044 0.130493,0.26898 0.130493,0.0959 0.524635,0.18375 l 0.167777,0.0373 q 0.521972,0.11185 0.740349,0.31691 0.221039,0.2024 0.221039,0.56724 0,0.41545 -0.330228,0.6578 -0.327564,0.24234 -0.902799,0.24234 -0.239681,0 -0.500667,-0.0479 -0.258323,-0.0453 -0.54594,-0.13848 v -0.50599 q 0.271638,0.14114 0.535288,0.21305 0.263649,0.0692 0.521972,0.0692 0.346206,0 0.532625,-0.11718 0.186418,-0.11984 0.186418,-0.33555 0,-0.19974 -0.135819,-0.30626 -0.133156,-0.10653 -0.58855,-0.20506 l -0.17044,-0.04 q -0.455395,-0.0959 -0.657792,-0.29294 -0.202397,-0.19974 -0.202397,-0.54594 0,-0.42078 0.298269,-0.64981 0.29827,-0.22902 0.846874,-0.22902 0.271639,0 0.51132,0.0399 0.239681,0.04 0.442078,0.11984 z"
         style="stroke-width:0.13635194"
         id="path1619-4"
         inkscape:connector-curvature="0" />
      <path
         d="m 34.384045,263.82488 q -0.593877,0 -0.822906,0.13582 -0.229029,0.13582 -0.229029,0.46338 0,0.26099 0.17044,0.41545 0.173103,0.1518 0.46871,0.1518 0.407458,0 0.652466,-0.28762 0.24767,-0.29028 0.24767,-0.76964 v -0.10919 z m 0.977366,-0.2024 v 1.70174 h -0.490015 v -0.45273 q -0.167777,0.27164 -0.41811,0.40213 -0.250334,0.12783 -0.612519,0.12783 -0.458057,0 -0.729696,-0.25566 -0.268975,-0.25832 -0.268975,-0.68975 0,-0.50333 0.335553,-0.75899 0.338217,-0.25566 1.006661,-0.25566 h 0.687086 v -0.0479 q 0,-0.33821 -0.223702,-0.52197 -0.22104,-0.18642 -0.623171,-0.18642 -0.25566,0 -0.498004,0.0612 -0.242345,0.0613 -0.466047,0.18376 v -0.45273 q 0.268975,-0.10386 0.521972,-0.15446 0.252997,-0.0533 0.492678,-0.0533 0.647139,0 0.966714,0.33555 0.319575,0.33555 0.319575,1.01731 z"
         style="stroke-width:0.13635194"
         id="path1621-7"
         inkscape:connector-curvature="0" />
      <path
         d="m 36.088444,262.34152 h 0.490015 l 0.612518,2.32757 0.609856,-2.32757 h 0.577897 l 0.612519,2.32757 0.609855,-2.32757 h 0.490015 l -0.780295,2.9827 h -0.577898 l -0.641813,-2.44475 -0.644476,2.44475 h -0.577898 z"
         style="stroke-width:0.13635194"
         id="path1623-8"
         inkscape:connector-curvature="0" />
    </g>
    <g
       aria-label="sqr "
       transform="matrix(0.95367205,0,0,1.0485785,56.672236,-0.52291573)"
       style="font-style:normal;font-weight:normal;font-size:5.91164303px;line-height:1.25;font-family:sans-serif;letter-spacing:0px;word-spacing:0px;display:inline;fill:#000000;fill-opacity:1;stroke:none;stroke-width:0.14779107"
       id="text1536-4">
      <path
         d="m 45.66578,276.33373 v 0.50226 q -0.225151,-0.11546 -0.467621,-0.17319 -0.242469,-0.0577 -0.502258,-0.0577 -0.395457,0 -0.594629,0.12123 -0.196285,0.12124 -0.196285,0.36371 0,0.18473 0.141441,0.29154 0.141441,0.10391 0.568649,0.19917 l 0.181853,0.0404 q 0.565762,0.12123 0.802459,0.3435 0.239583,0.21938 0.239583,0.61483 0,0.4503 -0.357931,0.71298 -0.355045,0.26267 -0.978539,0.26267 -0.259789,0 -0.54267,-0.052 -0.279995,-0.0491 -0.591742,-0.1501 v -0.54845 q 0.294428,0.15299 0.580196,0.23093 0.285767,0.075 0.565762,0.075 0.375251,0 0.577309,-0.12701 0.202058,-0.1299 0.202058,-0.36371 0,-0.21649 -0.147213,-0.33195 -0.144328,-0.11546 -0.637927,-0.22226 l -0.184739,-0.0433 q -0.493599,-0.10392 -0.712976,-0.31752 -0.219377,-0.21649 -0.219377,-0.59174 0,-0.45608 0.323292,-0.70432 0.323293,-0.24824 0.917922,-0.24824 0.294427,0 0.554216,0.0433 0.259789,0.0433 0.479167,0.12989 z"
         style="stroke-width:0.14779107"
         id="path1626-5"
         inkscape:connector-curvature="0" />
      <path
         d="m 47.005136,277.85783 q 0,0.58597 0.239583,0.9208 0.24247,0.33196 0.663906,0.33196 0.421435,0 0.663905,-0.33196 0.24247,-0.33483 0.24247,-0.9208 0,-0.58597 -0.24247,-0.91792 -0.24247,-0.33484 -0.663905,-0.33484 -0.421436,0 -0.663906,0.33484 -0.239583,0.33195 -0.239583,0.91792 z m 1.809864,1.12864 q -0.16742,0.28865 -0.424323,0.43009 -0.254015,0.13855 -0.611947,0.13855 -0.585968,0 -0.955446,-0.46762 -0.366591,-0.46762 -0.366591,-1.22966 0,-0.76205 0.366591,-1.22967 0.369478,-0.46762 0.955446,-0.46762 0.357932,0 0.611947,0.14144 0.256903,0.13855 0.424323,0.42721 v -0.49071 h 0.531124 v 4.46259 H 48.815 Z"
         style="stroke-width:0.14779107"
         id="path1628-0"
         inkscape:connector-curvature="0" />
      <path
         d="m 52.313491,276.73496 q -0.08948,-0.052 -0.196285,-0.075 -0.103915,-0.026 -0.230923,-0.026 -0.450301,0 -0.692771,0.29443 -0.239583,0.29154 -0.239583,0.83998 v 1.70307 h -0.534011 v -3.23293 h 0.534011 v 0.50225 q 0.167419,-0.29442 0.435868,-0.43586 0.268449,-0.14433 0.652359,-0.14433 0.05484,0 0.121235,0.009 0.06639,0.006 0.147214,0.0202 z"
         style="stroke-width:0.14779107"
         id="path1630-3"
         inkscape:connector-curvature="0" />
    </g>
    <g
       transform="translate(112.76401,-0.52291571)"
       aria-label="pitch "
       style="font-style:normal;font-weight:normal;font-size:10.58333302px;line-height:1.25;font-family:sans-serif;letter-spacing:0px;word-spacing:0px;display:inline;fill:#000000;fill-opacity:1;stroke:none;stroke-width:0.26458332"
       id="text1389-7">
      <path
         d="m 16.135934,208.9485 v 3.06958 H 15.17992 v -7.98917 h 0.956014 v 0.87849 q 0.299723,-0.51676 0.754476,-0.76481 0.45992,-0.25321 1.09554,-0.25321 1.0542,0 1.71049,0.83716 0.661459,0.83716 0.661459,2.20141 0,1.36426 -0.661459,2.20142 -0.65629,0.83716 -1.71049,0.83716 -0.63562,0 -1.09554,-0.24805 -0.454753,-0.25321 -0.754476,-0.76998 z m 3.234945,-2.02055 q 0,-1.04903 -0.434082,-1.64331 -0.428915,-0.59944 -1.183391,-0.59944 -0.754475,0 -1.188557,0.59944 -0.428915,0.59428 -0.428915,1.64331 0,1.04903 0.428915,1.64848 0.434082,0.59428 1.188557,0.59428 0.754476,0 1.183391,-0.59428 0.434082,-0.59945 0.434082,-1.64848 z"
         style="stroke-width:0.26458332"
         id="path1541-65"
         inkscape:connector-curvature="0" />
      <path
         d="m 21.93403,204.02891 h 0.950846 v 5.78776 H 21.93403 Z m 0,-2.2531 h 0.950846 v 1.20406 H 21.93403 Z"
         style="stroke-width:0.26458332"
         id="path1543-6"
         inkscape:connector-curvature="0" />
      <path
         d="m 25.809762,202.38559 v 1.64332 h 1.958537 v 0.73897 h -1.958537 v 3.14193 q 0,0.70796 0.191203,0.9095 0.19637,0.20154 0.790649,0.20154 h 0.976685 v 0.79582 h -0.976685 q -1.100708,0 -1.519287,-0.40825 -0.418579,-0.41341 -0.418579,-1.49861 v -3.14193 h -0.697632 v -0.73897 h 0.697632 v -1.64332 z"
         style="stroke-width:0.26458332"
         id="path1545-9"
         inkscape:connector-curvature="0" />
      <path
         d="m 33.189156,204.25111 v 0.88884 q -0.403076,-0.22221 -0.81132,-0.33073 -0.403076,-0.11369 -0.816487,-0.11369 -0.925008,0 -1.436605,0.58911 -0.511597,0.58395 -0.511597,1.64331 0,1.05937 0.511597,1.64848 0.511597,0.58394 1.436605,0.58394 0.413411,0 0.816487,-0.10852 0.408244,-0.11368 0.81132,-0.33589 v 0.8785 q -0.397908,0.18603 -0.826823,0.27905 -0.423746,0.093 -0.904337,0.093 -1.307414,0 -2.077393,-0.82166 -0.769978,-0.82165 -0.769978,-2.21692 0,-1.41593 0.775146,-2.22725 0.780314,-0.81132 2.134237,-0.81132 0.439249,0 0.857828,0.093 0.41858,0.0878 0.81132,0.26871 z"
         style="stroke-width:0.26458332"
         id="path1547-37"
         inkscape:connector-curvature="0" />
      <path
         d="m 39.664212,206.32334 v 3.49333 h -0.950846 v -3.46233 q 0,-0.82165 -0.320394,-1.22989 -0.320394,-0.40825 -0.961181,-0.40825 -0.769979,0 -1.214397,0.49093 -0.444417,0.49092 -0.444417,1.33842 v 3.27112 h -0.956014 v -8.04086 h 0.956014 v 3.15227 q 0.341065,-0.52194 0.800985,-0.78032 0.465088,-0.25838 1.069702,-0.25838 0.997355,0 1.508952,0.62012 0.511596,0.61495 0.511596,1.81384 z"
         style="stroke-width:0.26458332"
         id="path1549-4"
         inkscape:connector-curvature="0" />
    </g>
    <g
       aria-label="cv "
       transform="matrix(0.93016602,0,0,1.0750769,112.76401,-0.52291571)"
       style="font-style:normal;font-weight:normal;font-size:6.81364346px;line-height:1.25;font-family:sans-serif;letter-spacing:0px;word-spacing:0px;display:inline;fill:#000000;fill-opacity:1;stroke:none;stroke-width:0.17034107"
       id="text1463-5">
      <path
         d="m 9.6095246,210.0706 v 0.57224 q -0.259504,-0.14306 -0.522335,-0.21293 -0.259504,-0.0732 -0.5256619,-0.0732 -0.5955284,0 -0.9248989,0.37927 -0.3293704,0.37595 -0.3293704,1.05798 0,0.68203 0.3293704,1.0613 0.3293705,0.37595 0.9248989,0.37595 0.2661579,0 0.5256619,-0.0699 0.262831,-0.0732 0.522335,-0.21626 v 0.56559 q -0.256177,0.11977 -0.5323159,0.17965 -0.2728119,0.0599 -0.5822205,0.0599 -0.8417245,0 -1.3374437,-0.52899 -0.4957192,-0.52899 -0.4957192,-1.42727 0,-0.91159 0.4990462,-1.43393 0.5023731,-0.52233 1.3740404,-0.52233 0.2827928,0 0.5522777,0.0599 0.2694849,0.0566 0.522335,0.17301 z"
         style="stroke-width:0.17034107"
         id="path1552-25"
         inkscape:connector-curvature="0" />
      <path
         d="m 10.24165,209.92754 h 0.64876 l 1.164441,3.12735 1.164441,-3.12735 h 0.64876 l -1.397329,3.72621 h -0.831744 z"
         style="stroke-width:0.17034107"
         id="path1554-4"
         inkscape:connector-curvature="0" />
    </g>
    <g
       aria-label="fine "
       transform="matrix(0.86608092,0,0,1.1546265,112.76401,-0.52291571)"
       style="font-style:normal;font-weight:normal;font-size:6.23489571px;line-height:1.25;font-family:sans-serif;letter-spacing:0px;word-spacing:0px;display:inline;fill:#000000;fill-opacity:1;stroke:none;stroke-width:0.15587239"
       id="text1469-7">
      <path
         d="m 28.106082,196.49782 v 3.40971 h -0.563211 v -2.97436 h -1.537413 v 2.97436 h -0.563211 v -2.97436 h -0.535811 v -0.43535 h 0.535811 v -0.23746 q 0,-0.55712 0.261817,-0.82198 0.264861,-0.26791 0.809806,-0.26791 h 0.56321 v 0.46579 h -0.535811 q -0.301394,0 -0.420125,0.12178 -0.115686,0.12177 -0.115686,0.43839 v 0.30139 z m -0.563211,-1.32126 h 0.563211 v 0.70934 h -0.563211 z"
         style="stroke-width:0.15587239"
         id="path1557-4"
         inkscape:connector-curvature="0" />
      <path
         d="m 32.118578,197.84953 v 2.058 h -0.560166 v -2.03973 q 0,-0.48406 -0.188752,-0.72457 -0.188752,-0.2405 -0.566255,-0.2405 -0.453613,0 -0.71543,0.28921 -0.261817,0.28922 -0.261817,0.7885 v 1.92709 h -0.563211 v -3.40971 h 0.563211 v 0.52973 q 0.200929,-0.30749 0.471879,-0.45971 0.273995,-0.15222 0.630187,-0.15222 0.587566,0 0.88896,0.36533 0.301394,0.36228 0.301394,1.06858 z"
         style="stroke-width:0.15587239"
         id="path1559-4"
         inkscape:connector-curvature="0" />
      <path
         d="m 36.158474,198.06264 v 0.27399 h -2.575548 q 0.03653,0.57843 0.34706,0.88287 0.313571,0.3014 0.870693,0.3014 0.322705,0 0.624099,-0.0792 0.304438,-0.0791 0.602787,-0.23746 v 0.52972 q -0.301394,0.12787 -0.618009,0.19484 -0.316616,0.067 -0.642365,0.067 -0.815895,0 -1.293863,-0.47492 -0.474923,-0.47493 -0.474923,-1.28473 0,-0.83721 0.450568,-1.32736 0.453613,-0.49319 1.220798,-0.49319 0.68803,0 1.086844,0.44448 0.401859,0.44144 0.401859,1.20254 z m -0.560167,-0.1644 q -0.0061,-0.4597 -0.258772,-0.7337 -0.249639,-0.27399 -0.663676,-0.27399 -0.468834,0 -0.751962,0.26486 -0.280083,0.26486 -0.322705,0.74587 z"
         style="stroke-width:0.15587239"
         id="path1561-3"
         inkscape:connector-curvature="0" />
    </g>
    <g
       aria-label="pwm "
       transform="matrix(0.9043448,0,0,1.1057729,112.76401,-0.52291571)"
       style="font-style:normal;font-weight:normal;font-size:5.60587215px;line-height:1.25;font-family:sans-serif;letter-spacing:0px;word-spacing:0px;display:inline;fill:#000000;fill-opacity:1;stroke:none;stroke-width:0.14014679"
       id="text1475-0">
      <path
         d="m 42.944754,207.0308 v 1.62593 h -0.50639 v -4.23178 h 0.50639 v 0.46533 q 0.15876,-0.27372 0.399638,-0.40511 0.243614,-0.13413 0.580295,-0.13413 0.558397,0 0.906027,0.44344 0.350367,0.44343 0.350367,1.16606 0,0.72264 -0.350367,1.16607 -0.34763,0.44343 -0.906027,0.44343 -0.336681,0 -0.580295,-0.13139 -0.240878,-0.13412 -0.399638,-0.40785 z m 1.713514,-1.07026 q 0,-0.55566 -0.229928,-0.87044 -0.227192,-0.31752 -0.626829,-0.31752 -0.399637,0 -0.629566,0.31752 -0.227191,0.31478 -0.227191,0.87044 0,0.55566 0.227191,0.87318 0.229929,0.31479 0.629566,0.31479 0.399637,0 0.626829,-0.31479 0.229928,-0.31752 0.229928,-0.87318 z"
         style="stroke-width:0.14014679"
         id="path1564-7"
         inkscape:connector-curvature="0" />
      <path
         d="m 45.723055,204.42495 h 0.503653 l 0.629565,2.39235 0.626829,-2.39235 h 0.593981 l 0.629566,2.39235 0.626829,-2.39235 h 0.503652 l -0.802012,3.06571 h -0.593981 l -0.659676,-2.51279 -0.662412,2.51279 h -0.593982 z"
         style="stroke-width:0.14014679"
         id="path1566-8"
         inkscape:connector-curvature="0" />
      <path
         d="m 52.990433,205.01346 q 0.188869,-0.33942 0.451645,-0.50092 0.262775,-0.1615 0.618616,-0.1615 0.479018,0 0.739056,0.33669 0.260038,0.33394 0.260038,0.95256 v 1.85037 h -0.50639 v -1.83395 q 0,-0.4407 -0.156023,-0.6542 -0.156023,-0.21351 -0.47628,-0.21351 -0.391426,0 -0.618617,0.26004 -0.227191,0.26004 -0.227191,0.70895 v 1.73267 h -0.50639 v -1.83395 q 0,-0.44343 -0.156022,-0.6542 -0.156023,-0.21351 -0.481755,-0.21351 -0.385951,0 -0.613142,0.26278 -0.227191,0.26004 -0.227191,0.70621 v 1.73267 h -0.50639 v -3.06571 h 0.50639 v 0.47628 q 0.172446,-0.28194 0.413323,-0.41606 0.240877,-0.13413 0.572084,-0.13413 0.333943,0 0.566609,0.16971 0.235403,0.16971 0.34763,0.49271 z"
         style="stroke-width:0.14014679"
         id="path1568-6"
         inkscape:connector-curvature="0" />
    </g>
    <g
       aria-label="1v/oct "
       transform="matrix(0.90602911,0,0,1.1037173,112.76401,-0.52291571)"
       style="font-style:normal;font-weight:normal;font-size:6.2884922px;line-height:1.25;font-family:sans-serif;letter-spacing:0px;word-spacing:0px;display:inline;fill:#000000;fill-opacity:1;stroke:none;stroke-width:0.1572123"
       id="text1481-8">
      <path
         d="m 20.369715,226.15885 h 1.013282 v -3.49736 l -1.102328,0.22108 v -0.56498 l 1.096187,-0.22108 h 0.620252 v 4.06234 h 1.013282 v 0.522 h -2.640675 z"
         style="stroke-width:0.1572123"
         id="path1571-8"
         inkscape:connector-curvature="0" />
      <path
         d="m 23.781099,223.24183 h 0.598757 l 1.074694,2.88632 1.074693,-2.88632 h 0.598758 l -1.289632,3.43902 h -0.767638 z"
         style="stroke-width:0.1572123"
         id="path1573-4"
         inkscape:connector-curvature="0" />
      <path
         d="m 28.911992,222.09651 h 0.521994 l -1.596687,5.16774 h -0.521994 z"
         style="stroke-width:0.1572123"
         id="path1575-3"
         inkscape:connector-curvature="0" />
      <path
         d="m 31.365364,223.63793 q -0.454442,0 -0.718509,0.35618 -0.264068,0.35312 -0.264068,0.9703 0,0.61718 0.260997,0.97336 0.264068,0.35312 0.72158,0.35312 0.451371,0 0.715439,-0.35619 0.264067,-0.35618 0.264067,-0.97029 0,-0.61104 -0.264067,-0.96723 -0.264068,-0.35925 -0.715439,-0.35925 z m 0,-0.47901 q 0.736933,0 1.157598,0.47901 0.420666,0.47901 0.420666,1.32648 0,0.8444 -0.420666,1.32648 -0.420665,0.479 -1.157598,0.479 -0.740003,0 -1.160669,-0.479 -0.417595,-0.48208 -0.417595,-1.32648 0,-0.84747 0.417595,-1.32648 0.420666,-0.47901 1.160669,-0.47901 z"
         style="stroke-width:0.1572123"
         id="path1577-1"
         inkscape:connector-curvature="0" />
      <path
         d="m 36.351942,223.37386 v 0.52814 q -0.239503,-0.13204 -0.482076,-0.19652 -0.239504,-0.0675 -0.485148,-0.0675 -0.549629,0 -0.853613,0.35004 -0.303985,0.34697 -0.303985,0.97644 0,0.62946 0.303985,0.9795 0.303984,0.34698 0.853613,0.34698 0.245644,0 0.485148,-0.0645 0.242573,-0.0676 0.482076,-0.19959 v 0.52199 q -0.236432,0.11054 -0.491288,0.16581 -0.251785,0.0553 -0.537347,0.0553 -0.77685,0 -1.234362,-0.48821 -0.457512,-0.48822 -0.457512,-1.31727 0,-0.84133 0.460582,-1.32341 0.463654,-0.48208 1.268139,-0.48208 0.260997,0 0.509712,0.0553 0.248714,0.0522 0.482076,0.15967 z"
         style="stroke-width:0.1572123"
         id="path1579-4"
         inkscape:connector-curvature="0" />
      <path
         d="m 37.8995,222.26539 v 0.97644 h 1.16374 v 0.43909 H 37.8995 v 1.86689 q 0,0.42067 0.113611,0.54042 0.116681,0.11975 0.469794,0.11975 h 0.580335 v 0.47287 h -0.580335 q -0.654027,0 -0.902742,-0.24258 -0.248715,-0.24564 -0.248715,-0.89046 v -1.86689 h -0.414525 v -0.43909 h 0.414525 v -0.97644 z"
         style="stroke-width:0.1572123"
         id="path1581-92"
         inkscape:connector-curvature="0" />
    </g>
    <g
       aria-label="pulsewidth"
       transform="matrix(0.87831745,0,0,1.1385405,112.76401,-0.52291571)"
       style="font-style:normal;font-weight:normal;font-size:5.89962292px;line-height:1.25;font-family:sans-serif;letter-spacing:0px;word-spacing:0px;display:inline;fill:#000000;fill-opacity:1;stroke:none;stroke-width:0.14749058"
       id="text1487-0">
      <path
         d="m 15.259784,241.36392 v 1.71112 h -0.532925 v -4.45353 h 0.532925 v 0.48972 q 0.167079,-0.28807 0.420578,-0.42634 0.256381,-0.14115 0.610704,-0.14115 0.587657,0 0.953503,0.46666 0.368727,0.46667 0.368727,1.22717 0,0.7605 -0.368727,1.22717 -0.365846,0.46667 -0.953503,0.46667 -0.354323,0 -0.610704,-0.13827 -0.253499,-0.14116 -0.420578,-0.42922 z m 1.803303,-1.12635 q 0,-0.58477 -0.241977,-0.91605 -0.239096,-0.33416 -0.659675,-0.33416 -0.420578,0 -0.662555,0.33416 -0.239096,0.33128 -0.239096,0.91605 0,0.58478 0.239096,0.91894 0.241977,0.33128 0.662555,0.33128 0.420579,0 0.659675,-0.33128 0.241977,-0.33416 0.241977,-0.91894 z"
         style="stroke-width:0.14749058"
         id="path1584-6"
         inkscape:connector-curvature="0" />
      <path
         d="m 18.437169,240.57461 v -1.9531 h 0.530044 v 1.93294 q 0,0.45802 0.178602,0.68848 0.178602,0.22757 0.535805,0.22757 0.429221,0 0.676959,-0.27366 0.250619,-0.27367 0.250619,-0.7461 v -1.82923 h 0.530044 v 3.22636 h -0.530044 v -0.49548 q -0.193005,0.29383 -0.449385,0.43787 -0.2535,0.14115 -0.590539,0.14115 -0.55597,0 -0.844038,-0.34568 -0.288067,-0.34568 -0.288067,-1.01112 z m 1.333752,-2.03087 z"
         style="stroke-width:0.14749058"
         id="path1586-8"
         inkscape:connector-curvature="0" />
      <path
         d="m 22.236779,237.36554 h 0.530045 v 4.48233 h -0.530045 z"
         style="stroke-width:0.14749058"
         id="path1588-9"
         inkscape:connector-curvature="0" />
      <path
         d="m 25.929805,238.71658 v 0.50123 q -0.224692,-0.11522 -0.466669,-0.17284 -0.241977,-0.0576 -0.501238,-0.0576 -0.394652,0 -0.593419,0.12099 -0.195886,0.12099 -0.195886,0.36296 0,0.18437 0.141153,0.29095 0.141154,0.10371 0.567493,0.19877 l 0.181483,0.0403 q 0.564612,0.12099 0.800828,0.3428 0.239096,0.21893 0.239096,0.61358 0,0.44939 -0.357204,0.71153 -0.354323,0.26214 -0.976549,0.26214 -0.259261,0 -0.541567,-0.0519 -0.279425,-0.049 -0.590538,-0.1498 v -0.54733 q 0.293829,0.15268 0.579015,0.23046 0.285187,0.0749 0.564613,0.0749 0.374488,0 0.576135,-0.12675 0.201647,-0.12963 0.201647,-0.36297 0,-0.21605 -0.146914,-0.33128 -0.144034,-0.11522 -0.63663,-0.22181 l -0.184363,-0.0432 q -0.492595,-0.1037 -0.711527,-0.31687 -0.218931,-0.21605 -0.218931,-0.59054 0,-0.45515 0.322636,-0.70289 0.322635,-0.24773 0.916055,-0.24773 0.293828,0 0.553089,0.0432 0.259261,0.0432 0.478192,0.12963 z"
         style="stroke-width:0.14749058"
         id="path1590-2"
         inkscape:connector-curvature="0" />
      <path
         d="m 29.709251,240.10218 v 0.25926 H 27.2722 q 0.03457,0.54733 0.328397,0.8354 0.296709,0.28518 0.823873,0.28518 0.305351,0 0.590538,-0.0749 0.288068,-0.0749 0.570374,-0.2247 v 0.50124 q -0.285187,0.12099 -0.584777,0.18436 -0.29959,0.0634 -0.607823,0.0634 -0.772021,0 -1.224287,-0.44939 -0.449385,-0.44938 -0.449385,-1.21564 0,-0.79219 0.42634,-1.25598 0.429221,-0.46666 1.155151,-0.46666 0.651032,0 1.028401,0.42057 0.380249,0.4177 0.380249,1.13787 z m -0.530044,-0.15556 q -0.0058,-0.43498 -0.244858,-0.69424 -0.236215,-0.25926 -0.627987,-0.25926 -0.443624,0 -0.711527,0.25062 -0.265022,0.25062 -0.305351,0.70576 z"
         style="stroke-width:0.14749058"
         id="path1592-6"
         inkscape:connector-curvature="0" />
      <path
         d="m 30.270983,238.62151 h 0.530044 l 0.662555,2.51771 0.659675,-2.51771 h 0.625107 l 0.662555,2.51771 0.659675,-2.51771 h 0.530044 l -0.844038,3.22636 h -0.625107 l -0.694242,-2.64446 -0.697124,2.64446 h -0.625106 z"
         style="stroke-width:0.14749058"
         id="path1594-6"
         inkscape:connector-curvature="0" />
      <path
         d="m 35.407226,238.62151 h 0.530044 v 3.22636 h -0.530044 z m 0,-1.25597 h 0.530044 v 0.6712 h -0.530044 z"
         style="stroke-width:0.14749058"
         id="path1596-4"
         inkscape:connector-curvature="0" />
      <path
         d="m 39.166508,239.11123 v -1.74569 h 0.530044 v 4.48233 h -0.530044 v -0.48395 q -0.167079,0.28806 -0.423459,0.42922 -0.2535,0.13827 -0.610703,0.13827 -0.584777,0 -0.953504,-0.46667 -0.365846,-0.46667 -0.365846,-1.22717 0,-0.7605 0.365846,-1.22717 0.368727,-0.46666 0.953504,-0.46666 0.357203,0 0.610703,0.14115 0.25638,0.13827 0.423459,0.42634 z m -1.806183,1.12634 q 0,0.58478 0.239096,0.91894 0.241977,0.33128 0.662555,0.33128 0.420579,0 0.662555,-0.33128 0.241977,-0.33416 0.241977,-0.91894 0,-0.58477 -0.241977,-0.91605 -0.241976,-0.33416 -0.662555,-0.33416 -0.420578,0 -0.662555,0.33416 -0.239096,0.33128 -0.239096,0.91605 z"
         style="stroke-width:0.14749058"
         id="path1598-9"
         inkscape:connector-curvature="0" />
      <path
         d="m 41.31261,237.70546 v 0.91605 h 1.091776 v 0.41194 H 41.31261 v 1.75145 q 0,0.39465 0.106585,0.507 0.109466,0.11235 0.440744,0.11235 h 0.544447 v 0.44362 h -0.544447 q -0.613584,0 -0.846919,-0.22757 -0.233335,-0.23046 -0.233335,-0.8354 v -1.75145 h -0.388891 v -0.41194 h 0.388891 v -0.91605 z"
         style="stroke-width:0.14749058"
         id="path1600-5"
         inkscape:connector-curvature="0" />
      <path
         d="m 45.786299,239.90053 v 1.94734 h -0.530044 v -1.93005 q 0,-0.45803 -0.178602,-0.6856 -0.178602,-0.22758 -0.535806,-0.22758 -0.42922,0 -0.676958,0.27367 -0.247739,0.27366 -0.247739,0.74609 v 1.82347 h -0.532924 v -4.48233 h 0.532924 v 1.75721 q 0.190125,-0.29095 0.446505,-0.43498 0.259261,-0.14403 0.5963,-0.14403 0.55597,0 0.841157,0.34568 0.285187,0.3428 0.285187,1.01111 z"
         style="stroke-width:0.14749058"
         id="path1602-0"
         inkscape:connector-curvature="0" />
    </g>
    <g
       aria-label="sin "
       transform="matrix(0.90346911,0,0,1.1068447,112.76401,-0.52291571)"
       style="font-style:normal;font-weight:normal;font-size:5.63043451px;line-height:1.25;font-family:sans-serif;letter-spacing:0px;word-spacing:0px;display:inline;fill:#000000;fill-opacity:1;stroke:none;stroke-width:0.14076085"
       id="text1520-4">
      <path
         d="m 6.1365366,262.01698 v 0.47837 q -0.2144404,-0.10997 -0.4453762,-0.16495 -0.2309358,-0.055 -0.478367,-0.055 -0.3766453,0 -0.5663425,0.11547 -0.1869481,0.11547 -0.1869481,0.3464 0,0.17595 0.1347126,0.27768 0.1347125,0.099 0.5415994,0.18969 l 0.1732018,0.0385 q 0.5388502,0.11547 0.7642875,0.32716 0.2281866,0.20894 0.2281866,0.58559 0,0.42888 -0.3409052,0.67906 -0.338156,0.25018 -0.9319909,0.25018 -0.2474312,0 -0.5168563,-0.0495 -0.2666758,-0.0467 -0.5635933,-0.14296 v -0.52235 q 0.280422,0.14571 0.5525964,0.21994 0.2721743,0.0715 0.5388501,0.0715 0.3574007,0 0.5498472,-0.12097 0.1924465,-0.12371 0.1924465,-0.3464 0,-0.2062 -0.1402111,-0.31616 -0.1374617,-0.10997 -0.607581,-0.2117 l -0.1759511,-0.0412 q -0.4701193,-0.099 -0.6790612,-0.30242 -0.2089419,-0.20619 -0.2089419,-0.56359 0,-0.43438 0.3079144,-0.67082 0.3079144,-0.23643 0.8742569,-0.23643 0.280422,0 0.5278532,0.0412 0.2474312,0.0412 0.4563732,0.12371 z"
         style="stroke-width:0.14076085"
         id="path1605-8"
         inkscape:connector-curvature="0" />
      <path
         d="m 7.109766,261.92626 h 0.5058594 v 3.07914 H 7.109766 Z m 0,-1.19867 h 0.5058594 v 0.64057 H 7.109766 Z"
         style="stroke-width:0.14076085"
         id="path1607-7"
         inkscape:connector-curvature="0" />
      <path
         d="m 11.23087,263.14692 v 1.85848 h -0.505859 v -1.84199 q 0,-0.43712 -0.170453,-0.65431 -0.170453,-0.21719 -0.511358,-0.21719 -0.4096359,0 -0.6460701,0.26117 -0.2364343,0.26118 -0.2364343,0.71206 v 1.74026 H 8.652087 v -3.07914 h 0.5086086 v 0.47836 q 0.1814495,-0.27767 0.4261315,-0.41513 0.2474312,-0.13746 0.5690919,-0.13746 0.530602,0 0.802777,0.32991 0.272174,0.32716 0.272174,0.96498 z"
         style="stroke-width:0.14076085"
         id="path1609-17"
         inkscape:connector-curvature="0" />
    </g>
    <g
       aria-label="tri"
       transform="matrix(0.87862939,0,0,1.1381363,112.76401,-0.52291571)"
       style="font-style:normal;font-weight:normal;font-size:5.40437794px;line-height:1.25;font-family:sans-serif;letter-spacing:0px;word-spacing:0px;display:inline;fill:#000000;fill-opacity:1;stroke:none;stroke-width:0.13510945"
       id="text1526-27">
      <path
         d="m 19.054236,254.52817 v 0.83916 h 1.000127 v 0.37735 h -1.000127 v 1.60443 q 0,0.36152 0.09764,0.46444 0.100276,0.10291 0.403745,0.10291 h 0.498744 v 0.40639 h -0.498744 q -0.562077,0 -0.775824,-0.20847 -0.213747,-0.21111 -0.213747,-0.76527 v -1.60443 h -0.356246 v -0.37735 h 0.356246 v -0.83916 z"
         style="stroke-width:0.13510945"
         id="path1612-2"
         inkscape:connector-curvature="0" />
      <path
         d="m 22.408222,255.82121 q -0.0818,-0.0475 -0.179442,-0.0686 -0.095,-0.0238 -0.211108,-0.0238 -0.411662,0 -0.633326,0.26916 -0.219025,0.26653 -0.219025,0.76791 v 1.55693 h -0.488188 v -2.95552 h 0.488188 v 0.45916 q 0.153054,-0.26917 0.398467,-0.39847 0.245414,-0.13194 0.596382,-0.13194 0.05014,0 0.110832,0.008 0.06069,0.005 0.134582,0.0185 z"
         style="stroke-width:0.13510945"
         id="path1614-2"
         inkscape:connector-curvature="0" />
      <path
         d="m 22.922799,255.36733 h 0.48555 v 2.95552 h -0.48555 z m 0,-1.15055 h 0.48555 v 0.61486 h -0.48555 z"
         style="stroke-width:0.13510945"
         id="path1616-6"
         inkscape:connector-curvature="0" />
    </g>
    <g
       aria-label="saw "
       transform="matrix(0.90570219,0,0,1.1041157,112.76401,-0.52291571)"
       style="font-style:normal;font-weight:normal;font-size:5.4540782px;line-height:1.25;font-family:sans-serif;letter-spacing:0px;word-spacing:0px;display:inline;fill:#000000;fill-opacity:1;stroke:none;stroke-width:0.13635194"
       id="text1530-1">
      <path
         d="m 32.085768,262.4294 v 0.46339 q -0.207723,-0.10653 -0.431426,-0.15979 -0.223702,-0.0533 -0.463383,-0.0533 -0.364848,0 -0.548604,0.11185 -0.181092,0.11185 -0.181092,0.33555 0,0.17044 0.130493,0.26898 0.130493,0.0959 0.524635,0.18375 l 0.167777,0.0373 q 0.521972,0.11185 0.740349,0.31691 0.221039,0.2024 0.221039,0.56724 0,0.41545 -0.330228,0.6578 -0.327564,0.24234 -0.902799,0.24234 -0.239681,0 -0.500667,-0.0479 -0.258323,-0.0453 -0.54594,-0.13848 v -0.50599 q 0.271638,0.14114 0.535288,0.21305 0.263649,0.0692 0.521972,0.0692 0.346206,0 0.532625,-0.11718 0.186418,-0.11984 0.186418,-0.33555 0,-0.19974 -0.135819,-0.30626 -0.133156,-0.10653 -0.58855,-0.20506 l -0.17044,-0.04 q -0.455395,-0.0959 -0.657792,-0.29294 -0.202397,-0.19974 -0.202397,-0.54594 0,-0.42078 0.298269,-0.64981 0.29827,-0.22902 0.846874,-0.22902 0.271639,0 0.51132,0.0399 0.239681,0.04 0.442078,0.11984 z"
         style="stroke-width:0.13635194"
         id="path1619-0"
         inkscape:connector-curvature="0" />
      <path
         d="m 34.384045,263.82488 q -0.593877,0 -0.822906,0.13582 -0.229029,0.13582 -0.229029,0.46338 0,0.26099 0.17044,0.41545 0.173103,0.1518 0.46871,0.1518 0.407458,0 0.652466,-0.28762 0.24767,-0.29028 0.24767,-0.76964 v -0.10919 z m 0.977366,-0.2024 v 1.70174 h -0.490015 v -0.45273 q -0.167777,0.27164 -0.41811,0.40213 -0.250334,0.12783 -0.612519,0.12783 -0.458057,0 -0.729696,-0.25566 -0.268975,-0.25832 -0.268975,-0.68975 0,-0.50333 0.335553,-0.75899 0.338217,-0.25566 1.006661,-0.25566 h 0.687086 v -0.0479 q 0,-0.33821 -0.223702,-0.52197 -0.22104,-0.18642 -0.623171,-0.18642 -0.25566,0 -0.498004,0.0612 -0.242345,0.0613 -0.466047,0.18376 v -0.45273 q 0.268975,-0.10386 0.521972,-0.15446 0.252997,-0.0533 0.492678,-0.0533 0.647139,0 0.966714,0.33555 0.319575,0.33555 0.319575,1.01731 z"
         style="stroke-width:0.13635194"
         id="path1621-6"
         inkscape:connector-curvature="0" />
      <path
         d="m 36.088444,262.34152 h 0.490015 l 0.612518,2.32757 0.609856,-2.32757 h 0.577897 l 0.612519,2.32757 0.609855,-2.32757 h 0.490015 l -0.780295,2.9827 h -0.577898 l -0.641813,-2.44475 -0.644476,2.44475 h -0.577898 z"
         style="stroke-width:0.13635194"
         id="path1623-1"
         inkscape:connector-curvature="0" />
    </g>
    <g
       aria-label="sqr "
       transform="matrix(0.95367205,0,0,1.0485785,112.76401,-0.52291571)"
       style="font-style:normal;font-weight:normal;font-size:5.91164303px;line-height:1.25;font-family:sans-serif;letter-spacing:0px;word-spacing:0px;display:inline;fill:#000000;fill-opacity:1;stroke:none;stroke-width:0.14779107"
       id="text1536-5">
      <path
         d="m 45.66578,276.33373 v 0.50226 q -0.225151,-0.11546 -0.467621,-0.17319 -0.242469,-0.0577 -0.502258,-0.0577 -0.395457,0 -0.594629,0.12123 -0.196285,0.12124 -0.196285,0.36371 0,0.18473 0.141441,0.29154 0.141441,0.10391 0.568649,0.19917 l 0.181853,0.0404 q 0.565762,0.12123 0.802459,0.3435 0.239583,0.21938 0.239583,0.61483 0,0.4503 -0.357931,0.71298 -0.355045,0.26267 -0.978539,0.26267 -0.259789,0 -0.54267,-0.052 -0.279995,-0.0491 -0.591742,-0.1501 v -0.54845 q 0.294428,0.15299 0.580196,0.23093 0.285767,0.075 0.565762,0.075 0.375251,0 0.577309,-0.12701 0.202058,-0.1299 0.202058,-0.36371 0,-0.21649 -0.147213,-0.33195 -0.144328,-0.11546 -0.637927,-0.22226 l -0.184739,-0.0433 q -0.493599,-0.10392 -0.712976,-0.31752 -0.219377,-0.21649 -0.219377,-0.59174 0,-0.45608 0.323292,-0.70432 0.323293,-0.24824 0.917922,-0.24824 0.294427,0 0.554216,0.0433 0.259789,0.0433 0.479167,0.12989 z"
         style="stroke-width:0.14779107"
         id="path1626-9"
         inkscape:connector-curvature="0" />
      <path
         d="m 47.005136,277.85783 q 0,0.58597 0.239583,0.9208 0.24247,0.33196 0.663906,0.33196 0.421435,0 0.663905,-0.33196 0.24247,-0.33483 0.24247,-0.9208 0,-0.58597 -0.24247,-0.91792 -0.24247,-0.33484 -0.663905,-0.33484 -0.421436,0 -0.663906,0.33484 -0.239583,0.33195 -0.239583,0.91792 z m 1.809864,1.12864 q -0.16742,0.28865 -0.424323,0.43009 -0.254015,0.13855 -0.611947,0.13855 -0.585968,0 -0.955446,-0.46762 -0.366591,-0.46762 -0.366591,-1.22966 0,-0.76205 0.366591,-1.22967 0.369478,-0.46762 0.955446,-0.46762 0.357932,0 0.611947,0.14144 0.256903,0.13855 0.424323,0.42721 v -0.49071 h 0.531124 v 4.46259 H 48.815 Z"
         style="stroke-width:0.14779107"
         id="path1628-4"
         inkscape:connector-curvature="0" />
      <path
         d="m 52.313491,276.73496 q -0.08948,-0.052 -0.196285,-0.075 -0.103915,-0.026 -0.230923,-0.026 -0.450301,0 -0.692771,0.29443 -0.239583,0.29154 -0.239583,0.83998 v 1.70307 h -0.534011 v -3.23293 h 0.534011 v 0.50225 q 0.167419,-0.29442 0.435868,-0.43586 0.268449,-0.14433 0.652359,-0.14433 0.05484,0 0.121235,0.009 0.06639,0.006 0.147214,0.0202 z"
         style="stroke-width:0.14779107"
         id="path1630-9"
         inkscape:connector-curvature="0" />
    </g>
  </g>
  <g
     inkscape:groupmode="layer"
     id="layer2"
     inkscape:label="components"
     style="display:none">
    <circle
       style="fill:#ff0000;fill-opacity:1;stroke:none;stroke-width:0;stroke-miterlimit:4;stroke-dasharray:none;stroke-opacity:1"
       id="path1377"
       cx="27.876211"
       cy="25.414141"
       r="8.7931681"
       label="pitch"
       inkscape:label="pitch_one" />
    <circle
       style="fill:#ff0000;fill-opacity:1;stroke:none;stroke-width:0;stroke-miterlimit:4;stroke-dasharray:none;stroke-opacity:1"
       id="path1393"
       cx="10.102788"
       cy="49.1744"
       r="5.9868374"
       label="cv"
       inkscape:label="cv_one" />
    <circle
       style="fill:#ff0000;fill-opacity:1;stroke:none;stroke-width:0;stroke-miterlimit:4;stroke-dasharray:none;stroke-opacity:1"
       id="path1395"
       cx="27.127857"
       cy="49.735668"
       r="6.5481033"
       label="fine"
       inkscape:label="fine_one" />
    <circle
       style="fill:#ff0000;fill-opacity:1;stroke:none;stroke-width:0;stroke-miterlimit:4;stroke-dasharray:none;stroke-opacity:1"
       id="path1395-3"
       cx="44.152927"
       cy="49.54858"
       r="6.5481033"
       label="pwm"
       inkscape:label="pwm_one" />
    <circle
       style="fill:#00ff00;fill-opacity:1;stroke:none;stroke-width:0;stroke-miterlimit:4;stroke-dasharray:none;stroke-opacity:1"
       id="path1414"
       cx="10.102788"
       cy="70.128334"
       r="4.1159506"
       label="cv"
       inkscape:label="cv_in_one" />
    <circle
       style="fill:#00ff00;fill-opacity:1;stroke:none;stroke-width:0;stroke-miterlimit:4;stroke-dasharray:none;stroke-opacity:1"
       id="path1414-6"
       cx="26.940769"
       cy="70.876694"
       r="4.1159506"
       label="1voct"
       inkscape:label="1voct_one" />
    <circle
       style="fill:#00ff00;fill-opacity:1;stroke:none;stroke-width:0;stroke-miterlimit:4;stroke-dasharray:none;stroke-opacity:1"
       id="path1414-6-7"
       cx="44.152927"
       cy="69.754158"
       r="4.1159506"
       label="pwm"
       inkscape:label="pwm_in_one" />
    <circle
       style="fill:#ff0000;fill-opacity:1;stroke:none;stroke-width:0;stroke-miterlimit:4;stroke-dasharray:none;stroke-opacity:1"
       id="path1377-5"
       cx="26.566589"
       cy="94.075684"
       r="8.7931681"
       label="pulsewidth"
       inkscape:label="pulsewidth_one" />
    <circle
       style="fill:#0000ff;fill-opacity:1;stroke:none;stroke-width:0;stroke-miterlimit:4;stroke-dasharray:none;stroke-opacity:1"
       id="path1489"
       cx="6.5481038"
       cy="114.09416"
       r="4.3030396"
       label="sine"
       inkscape:label="sine_one" />
    <circle
       style="display:inline;fill:#0000ff;fill-opacity:1;stroke:none;stroke-width:0;stroke-miterlimit:4;stroke-dasharray:none;stroke-opacity:1"
       id="path1489-3"
       cx="19.45722"
       cy="114.65544"
       r="4.3030396"
       label="triangle"
       inkscape:label="triangle_one" />
    <circle
       style="display:inline;fill:#0000ff;fill-opacity:1;stroke:none;stroke-width:0;stroke-miterlimit:4;stroke-dasharray:none;stroke-opacity:1"
       id="path1489-5"
       cx="32.553429"
       cy="114.28127"
       r="4.3030396"
       label="saw"
       inkscape:label="saw_one" />
    <circle
       style="display:inline;fill:#0000ff;fill-opacity:1;stroke:none;stroke-width:0;stroke-miterlimit:4;stroke-dasharray:none;stroke-opacity:1"
       id="path1489-6"
       cx="44.901283"
       cy="113.90708"
       r="4.3030396"
       label="square"
       inkscape:label="square_one" />
    <circle
       transform="translate(0,-168.5)"
       style="display:inline;fill:#ff0000;fill-opacity:1;stroke:none;stroke-width:0;stroke-miterlimit:4;stroke-dasharray:none;stroke-opacity:1"
       id="path1377-6"
       cx="84.548462"
       cy="193.39136"
       r="8.7931681"
       label="pitch"
       inkscape:label="pitch_two" />
    <circle
       transform="translate(0,-168.5)"
       style="display:inline;fill:#ff0000;fill-opacity:1;stroke:none;stroke-width:0;stroke-miterlimit:4;stroke-dasharray:none;stroke-opacity:1"
       id="path1393-1"
       cx="66.77504"
       cy="217.15163"
       r="5.9868374"
       label="cv"
       inkscape:label="cv_two" />
    <circle
       transform="translate(0,-168.5)"
       style="display:inline;fill:#ff0000;fill-opacity:1;stroke:none;stroke-width:0;stroke-miterlimit:4;stroke-dasharray:none;stroke-opacity:1"
       id="path1395-0"
       cx="83.80011"
       cy="217.71289"
       r="6.5481033"
       label="fine"
       inkscape:label="fine_two" />
    <circle
       transform="translate(0,-168.5)"
       style="display:inline;fill:#ff0000;fill-opacity:1;stroke:none;stroke-width:0;stroke-miterlimit:4;stroke-dasharray:none;stroke-opacity:1"
       id="path1395-3-6"
       cx="100.82518"
       cy="217.5258"
       r="6.5481033"
       label="pwm"
       inkscape:label="pwm_two" />
    <circle
       transform="translate(0,-168.5)"
       style="display:inline;fill:#00ff00;fill-opacity:1;stroke:none;stroke-width:0;stroke-miterlimit:4;stroke-dasharray:none;stroke-opacity:1"
       id="path1414-3"
       cx="66.77504"
       cy="238.10555"
       r="4.1159506"
       label="cv"
       inkscape:label="cv_in_two" />
    <circle
       transform="translate(0,-168.5)"
       style="display:inline;fill:#00ff00;fill-opacity:1;stroke:none;stroke-width:0;stroke-miterlimit:4;stroke-dasharray:none;stroke-opacity:1"
       id="path1414-6-2"
       cx="83.613022"
       cy="238.85391"
       r="4.1159506"
       label="1voct"
       inkscape:label="1voct_two" />
    <circle
       transform="translate(0,-168.5)"
       style="display:inline;fill:#00ff00;fill-opacity:1;stroke:none;stroke-width:0;stroke-miterlimit:4;stroke-dasharray:none;stroke-opacity:1"
       id="path1414-6-7-0"
       cx="100.82518"
       cy="237.73138"
       r="4.1159506"
       label="pwm"
       inkscape:label="pwm_in_two" />
    <circle
       transform="translate(0,-168.5)"
       style="display:inline;fill:#ff0000;fill-opacity:1;stroke:none;stroke-width:0;stroke-miterlimit:4;stroke-dasharray:none;stroke-opacity:1"
       id="path1377-5-6"
       cx="83.238838"
       cy="262.05261"
       r="8.7931681"
       label="pulsewidth"
       inkscape:label="pulsewidth_two" />
    <circle
       transform="translate(0,-168.5)"
       style="display:inline;fill:#0000ff;fill-opacity:1;stroke:none;stroke-width:0;stroke-miterlimit:4;stroke-dasharray:none;stroke-opacity:1"
       id="path1489-1"
       cx="63.220352"
       cy="282.07111"
       r="4.3030396"
       label="sine"
       inkscape:label="sine_two" />
    <circle
       transform="translate(0,-168.5)"
       style="display:inline;fill:#0000ff;fill-opacity:1;stroke:none;stroke-width:0;stroke-miterlimit:4;stroke-dasharray:none;stroke-opacity:1"
       id="path1489-3-5"
       cx="76.129471"
       cy="282.63239"
       r="4.3030396"
       label="triangle"
       inkscape:label="triangle_two" />
    <circle
       transform="translate(0,-168.5)"
       style="display:inline;fill:#0000ff;fill-opacity:1;stroke:none;stroke-width:0;stroke-miterlimit:4;stroke-dasharray:none;stroke-opacity:1"
       id="path1489-5-5"
       cx="89.225677"
       cy="282.25821"
       r="4.3030396"
       label="saw"
       inkscape:label="saw_two" />
    <circle
       transform="translate(0,-168.5)"
       style="display:inline;fill:#0000ff;fill-opacity:1;stroke:none;stroke-width:0;stroke-miterlimit:4;stroke-dasharray:none;stroke-opacity:1"
       id="path1489-6-4"
       cx="101.57351"
       cy="281.884"
       r="4.3030396"
       label="square"
       inkscape:label="square_two" />
    <circle
       transform="translate(0,-168.5)"
       style="display:inline;fill:#ff0000;fill-opacity:1;stroke:none;stroke-width:0;stroke-miterlimit:4;stroke-dasharray:none;stroke-opacity:1"
       id="path1377-0"
       cx="140.63992"
       cy="193.39136"
       r="8.7931681"
       label="pitch"
       inkscape:label="pitch_three" />
    <circle
       transform="translate(0,-168.5)"
       style="display:inline;fill:#ff0000;fill-opacity:1;stroke:none;stroke-width:0;stroke-miterlimit:4;stroke-dasharray:none;stroke-opacity:1"
       id="path1393-9"
       cx="122.86671"
       cy="217.15163"
       r="5.9868374"
       label="cv"
       inkscape:label="cv_three" />
    <circle
       transform="translate(0,-168.5)"
       style="display:inline;fill:#ff0000;fill-opacity:1;stroke:none;stroke-width:0;stroke-miterlimit:4;stroke-dasharray:none;stroke-opacity:1"
       id="path1395-1"
       cx="139.89162"
       cy="217.71289"
       r="6.5481033"
       label="fine"
       inkscape:label="fine_three" />
    <circle
       transform="translate(0,-168.5)"
       style="display:inline;fill:#ff0000;fill-opacity:1;stroke:none;stroke-width:0;stroke-miterlimit:4;stroke-dasharray:none;stroke-opacity:1"
       id="path1395-3-7"
       cx="156.91644"
       cy="217.5258"
       r="6.5481033"
       label="pwm"
       inkscape:label="pwm_three" />
    <circle
       transform="translate(0,-168.5)"
       style="display:inline;fill:#00ff00;fill-opacity:1;stroke:none;stroke-width:0;stroke-miterlimit:4;stroke-dasharray:none;stroke-opacity:1"
       id="path1414-7"
       cx="122.86671"
       cy="238.10555"
       r="4.1159506"
       label="cv"
       inkscape:label="cv_in_three" />
    <circle
       transform="translate(0,-168.5)"
       style="display:inline;fill:#00ff00;fill-opacity:1;stroke:none;stroke-width:0;stroke-miterlimit:4;stroke-dasharray:none;stroke-opacity:1"
       id="path1414-6-1"
       cx="139.70451"
       cy="238.85391"
       r="4.1159506"
       label="1voct"
       inkscape:label="1voct_three" />
    <circle
       transform="translate(0,-168.5)"
       style="display:inline;fill:#00ff00;fill-opacity:1;stroke:none;stroke-width:0;stroke-miterlimit:4;stroke-dasharray:none;stroke-opacity:1"
       id="path1414-6-7-1"
       cx="156.91644"
       cy="237.73138"
       r="4.1159506"
       label="pwm"
       inkscape:label="pwm_in_three" />
    <circle
       transform="translate(0,-168.5)"
       style="display:inline;fill:#ff0000;fill-opacity:1;stroke:none;stroke-width:0;stroke-miterlimit:4;stroke-dasharray:none;stroke-opacity:1"
       id="path1377-5-5"
       cx="139.33034"
       cy="262.05261"
       r="8.7931681"
       label="pulsewidth"
       inkscape:label="pulsewidth_three" />
    <circle
       transform="translate(0,-168.5)"
       style="display:inline;fill:#0000ff;fill-opacity:1;stroke:none;stroke-width:0;stroke-miterlimit:4;stroke-dasharray:none;stroke-opacity:1"
       id="path1489-9"
       cx="119.31205"
       cy="282.07111"
       r="4.3030396"
       label="sine"
       inkscape:label="sine_three" />
    <circle
       transform="translate(0,-168.5)"
       style="display:inline;fill:#0000ff;fill-opacity:1;stroke:none;stroke-width:0;stroke-miterlimit:4;stroke-dasharray:none;stroke-opacity:1"
       id="path1489-3-7"
       cx="132.2211"
       cy="282.63239"
       r="4.3030396"
       label="triangle"
       inkscape:label="triangle_three" />
    <circle
       transform="translate(0,-168.5)"
       style="display:inline;fill:#0000ff;fill-opacity:1;stroke:none;stroke-width:0;stroke-miterlimit:4;stroke-dasharray:none;stroke-opacity:1"
       id="path1489-5-7"
       cx="145.31709"
       cy="282.25821"
       r="4.3030396"
       label="saw"
       inkscape:label="saw_three" />
    <circle
       transform="translate(0,-168.5)"
       style="display:inline;fill:#0000ff;fill-opacity:1;stroke:none;stroke-width:0;stroke-miterlimit:4;stroke-dasharray:none;stroke-opacity:1"
       id="path1489-6-6"
       cx="157.66478"
       cy="281.884"
       r="4.3030396"
       label="square"
       inkscape:label="square_three" />
  </g>
</svg>
